<?xml version="1.0" encoding="UTF-8"?>
<svg version="1.1" xmlns="http://www.w3.org/2000/svg" width="248" height="162">
<path d="M0 0 C0.495 0.99 0.495 0.99 1 2 C0.34 2 -0.32 2 -1 2 C-1.28875 2.928125 -1.5775 3.85625 -1.875 4.8125 C-3 8 -3 8 -5 11 C-1.63408134 9.55746343 0.51047079 7.66735273 3 5 C7.86313602 7.05907249 9.77065205 10.34436524 12 15 C12.89614477 17.97336239 13.52429813 20.93278792 14 24 C16.31 24 18.62 24 21 24 C20.98952637 23.44538086 20.97905273 22.89076172 20.96826172 22.31933594 C20.92657996 19.79627041 20.90063562 17.27327747 20.875 14.75 C20.85824219 13.87730469 20.84148437 13.00460938 20.82421875 12.10546875 C20.81777344 11.26113281 20.81132812 10.41679687 20.8046875 9.546875 C20.79421387 8.77182617 20.78374023 7.99677734 20.77294922 7.19824219 C21.02673444 4.74116461 21.77555848 3.12688458 23 1 C25.31 1 27.62 1 30 1 C30.99 3.97 30.99 3.97 32 7 C33.299375 6.979375 34.59875 6.95875 35.9375 6.9375 C37.29165633 6.91600546 38.64756083 6.92851801 40 7 C41 8 41 8 41.09765625 9.84765625 C41.06510417 11.8984375 41.03255208 13.94921875 41 16 C41.99 15.505 41.99 15.505 43 15 C48.53846154 14.76923077 48.53846154 14.76923077 51 16 C51 17.65 51 19.3 51 21 C53.31 21.33 55.62 21.66 58 22 C58 25.63 58 29.26 58 33 C57.05125 33.226875 56.1025 33.45375 55.125 33.6875 C51.80676612 34.69083714 51.80676612 34.69083714 50.625 37.625 C50.41875 38.40875 50.2125 39.1925 50 40 C47.36 40.33 44.72 40.66 42 41 C41.67 43.31 41.34 45.62 41 48 C36.05 48.495 36.05 48.495 31 49 C31.495 50.98 31.495 50.98 32 53 C31 54 31 54 28.93359375 54.09765625 C28.10988281 54.08605469 27.28617187 54.07445312 26.4375 54.0625 C25.61121094 54.05347656 24.78492188 54.04445312 23.93359375 54.03515625 C23.29550781 54.02355469 22.65742188 54.01195312 22 54 C20.76308349 50.16163211 20.8671671 46.44402655 20.875 42.4375 C20.87113281 41.76525391 20.86726563 41.09300781 20.86328125 40.40039062 C20.86938927 37.32500248 21.02008771 34.93973687 22 32 C19.36 32.33 16.72 32.66 14 33 C13.814375 33.90878906 13.814375 33.90878906 13.625 34.8359375 C11.42561776 43.77092786 6.64495154 50.91448469 -1.125 56 C-8.80037944 60.4800498 -17.29242613 61.35054492 -26 60 C-37.60167244 56.42250274 -45.66278297 48.42591083 -54 40 C-52.38617243 36.59787701 -50.41396234 33.89675481 -48 31 C-51.77040167 31.59806371 -53.90128766 33.28059216 -56.8125 35.6875 C-58.12154297 36.76257812 -58.12154297 36.76257812 -59.45703125 37.859375 C-61.65006408 39.70543028 -63.83063534 41.56375107 -66 43.4375 C-70.32041788 47.12785694 -72.32110556 47.36638029 -78 47 C-80.77027259 46.16843476 -83.3268499 45.12553688 -86 44 C-85.75390625 42.078125 -85.75390625 42.078125 -85 40 C-83.21484375 39.234375 -83.21484375 39.234375 -80.9375 38.75 C-73.21499585 36.51194943 -68.79028129 30.11173819 -64 24 C-60.51934559 20.42266075 -56.88840061 17.03354428 -53.1875 13.6875 C-49.57164503 10.40978263 -46.06702661 7.08724065 -42.6875 3.5625 C-31.60725095 -7.63245143 -13.28987117 -7.9739227 0 0 Z M-46 29 C-46 29.99 -46 30.98 -46 32 C-45.34 32 -44.68 32 -44 32 C-44.33 31.01 -44.66 30.02 -45 29 C-45.33 29 -45.66 29 -46 29 Z M-7.1875 31.5 C-8.27417969 31.7784375 -9.36085938 32.056875 -10.48046875 32.34375 C-11.31191406 32.5603125 -12.14335937 32.776875 -13 33 C-13.33 34.98 -13.66 36.96 -14 39 C-16.64 39.33 -19.28 39.66 -22 40 C-22.433125 39.34 -22.86625 38.68 -23.3125 38 C-24.1478125 37.01 -24.1478125 37.01 -25 36 C-25.99 36 -26.98 36 -28 36 C-26.87548273 38.9719385 -25.77706209 41.33440687 -24 44 C-23.01 44 -22.02 44 -21 44 C-21 44.66 -21 45.32 -21 46 C-21.99 46.33 -22.98 46.66 -24 47 C-20.5566296 49.11899717 -18.00374231 49.26887158 -14 49 C-6.83272576 46.46511105 -2.09247134 42.96716843 1.29296875 36.1484375 C2.20839908 33.7437075 2.20839908 33.7437075 2 30 C-1.31544299 30 -3.98001389 30.67226165 -7.1875 31.5 Z " fill="#EBEBEB" transform="translate(176,10)"/>
<path d="M0 0 C0.495 0.99 0.495 0.99 1 2 C0.34 2 -0.32 2 -1 2 C-1.28875 2.928125 -1.5775 3.85625 -1.875 4.8125 C-3 8 -3 8 -5 11 C-3.35 10.34 -1.7 9.68 0 9 C-0.2475 9.680625 -0.495 10.36125 -0.75 11.0625 C-1.32359346 14.16827592 -1.32359346 14.16827592 0.9375 16.875 C4.45312798 22.36132602 3.61195414 29.75949088 3 36 C1.9765625 38.45703125 1.9765625 38.45703125 1 40 C0.34 40 -0.32 40 -1 40 C-0.01 36.7 0.98 33.4 2 30 C1.38125 30.309375 0.7625 30.61875 0.125 30.9375 C-4.18802294 32.4039278 -8.4759996 32.66619026 -13 33 C-13.061875 33.94875 -13.12375 34.8975 -13.1875 35.875 C-14 39 -14 39 -16.3125 40.4375 C-19.08933747 41.01869854 -20.42737795 41.15324437 -23 40 C-23.66 39.01 -24.32 38.02 -25 37 C-25.99 36.67 -26.98 36.34 -28 36 C-27.401875 37.134375 -26.80375 38.26875 -26.1875 39.4375 C-25.85105469 40.07558594 -25.51460937 40.71367188 -25.16796875 41.37109375 C-24.00980201 43.32267987 -24.00980201 43.32267987 -21 44 C-21 44.66 -21 45.32 -21 46 C-21.99 46.495 -21.99 46.495 -23 47 C-22.67 47.66 -22.34 48.32 -22 49 C-30.8937475 48.16621117 -37.09173984 41.25246263 -43.09375 35.3046875 C-45 33 -45 33 -45 30 C-46.65 31.65 -48.3 33.3 -50 35 C-49.34 33.68 -48.68 32.36 -48 31 C-51.77040167 31.59806371 -53.90128766 33.28059216 -56.8125 35.6875 C-58.12154297 36.76257812 -58.12154297 36.76257812 -59.45703125 37.859375 C-61.65006408 39.70543028 -63.83063534 41.56375107 -66 43.4375 C-70.32041788 47.12785694 -72.32110556 47.36638029 -78 47 C-80.77027259 46.16843476 -83.3268499 45.12553688 -86 44 C-85.75390625 42.078125 -85.75390625 42.078125 -85 40 C-83.21484375 39.234375 -83.21484375 39.234375 -80.9375 38.75 C-73.21499585 36.51194943 -68.79028129 30.11173819 -64 24 C-60.51934559 20.42266075 -56.88840061 17.03354428 -53.1875 13.6875 C-49.57164503 10.40978263 -46.06702661 7.08724065 -42.6875 3.5625 C-31.60725095 -7.63245143 -13.28987117 -7.9739227 0 0 Z " fill="#131212" transform="translate(176,10)"/>
<path d="M0 0 C1.22778854 2.45557708 1.06631063 4.01468671 1 6.75 C0.96106761 9.75644547 1.05668033 12.33378417 1.5625 15.3125 C2.03026124 18.18589047 1.73984349 20.20503569 1 23 C2.98 22.67 4.96 22.34 7 22 C7.12375 21.38125 7.2475 20.7625 7.375 20.125 C8 18 8 18 10 16 C13.5 15.75 13.5 15.75 17 16 C19.71087776 18.71087776 19.22846058 20.28072619 19.3125 24.0625 C19.78354425 31.66649997 22.10087165 36.53975003 26.9375 42.3125 C29.11398713 44.16997239 29.11398713 44.16997239 32.25 46 C33.1575 46.66 34.065 47.32 35 48 C35 49.32 35 50.64 35 52 C30.30976546 51.43393721 25.65499974 50.81462495 21 50 C21 49.34 21 48.68 21 48 C20.29875 47.95875 19.5975 47.9175 18.875 47.875 C14.7853533 46.63032492 12.3998833 44.52369573 10 41 C8.98031719 38.03277136 8.40056834 35.10785778 8 32 C5.69 32 3.38 32 1 32 C0.67 38.93 0.34 45.86 0 53 C-2.64 53 -5.28 53 -8 53 C-8.144375 52.21625 -8.28875 51.4325 -8.4375 50.625 C-9.71536857 47.84843237 -9.71536857 47.84843237 -12.13671875 47.22265625 C-14.41974691 46.73164391 -16.68695927 46.31887599 -19 46 C-19 43.69 -19 41.38 -19 39 C-21.97 39 -24.94 39 -28 39 C-28.66 37.02 -29.32 35.04 -30 33 C-31.65 33 -33.3 33 -35 33 C-36.32630565 28.85529486 -36.98384711 23.96769422 -35 20 C-31.9375 19.375 -31.9375 19.375 -29 19 C-28.855625 18.360625 -28.71125 17.72125 -28.5625 17.0625 C-28 15 -28 15 -27 14 C-24.67182036 13.63239269 -22.3381615 13.29758419 -20 13 C-19.690625 12.030625 -19.38125 11.06125 -19.0625 10.0625 C-18 7 -18 7 -17 6 C-14.66702567 5.95907063 -12.33294775 5.95758277 -10 6 C-9.731875 5.030625 -9.46375 4.06125 -9.1875 3.0625 C-8.795625 2.051875 -8.40375 1.04125 -8 0 C-4.69693408 -1.10102197 -3.28414305 -0.95067299 0 0 Z " fill="#C61C19" transform="translate(59,11)"/>
<path d="M0 0 C8.06344251 1.19458408 14.56062107 9.19707107 20.375 14.5 C20.42398438 13.65695313 20.47296875 12.81390625 20.5234375 11.9453125 C20.59820312 10.84960938 20.67296875 9.75390625 20.75 8.625 C20.81960937 7.53445312 20.88921875 6.44390625 20.9609375 5.3203125 C21.375 2.5 21.375 2.5 23.375 0.5 C25.20999146 0.25949097 25.20999146 0.25949097 27.45751953 0.27294922 C28.71860031 0.27317581 28.71860031 0.27317581 30.00515747 0.27340698 C31.36772171 0.28889084 31.36772171 0.28889084 32.7578125 0.3046875 C34.15191849 0.30893234 34.15191849 0.30893234 35.57418823 0.31326294 C38.5495885 0.32447931 41.52469035 0.3495864 44.5 0.375 C46.51431858 0.38502792 48.52864186 0.3941541 50.54296875 0.40234375 C55.48709456 0.42442339 60.43099665 0.45896307 65.375 0.5 C66.4296875 2.35546875 66.4296875 2.35546875 67.375 4.5 C66.73974424 6.17889021 66.06813908 7.84416775 65.375 9.5 C65.436875 10.675625 65.49875 11.85125 65.5625 13.0625 C65.375 16.5 65.375 16.5 63.31640625 18.671875 C59.72824181 20.90196923 57.32201426 21.06018471 53.125 21.1875 C48.93243945 20.94999464 48.93243945 20.94999464 45.375 22.5 C45.16800437 23.99496842 45.00820741 25.4966592 44.875 27 C44.48611111 31.38888889 44.48611111 31.38888889 43.375 32.5 C36.08088235 32.73529412 36.08088235 32.73529412 32.375 31.5 C31.50875 31.768125 30.6425 32.03625 29.75 32.3125 C23.6256957 32.65273913 19.25258333 28.0282655 14.6875 24.3125 C12.07459778 22.26454962 9.37832418 20.89689497 6.375 19.5 C6.38660156 20.35464844 6.39820313 21.20929688 6.41015625 22.08984375 C6.41917969 23.19457031 6.42820312 24.29929687 6.4375 25.4375 C6.44910156 26.53964844 6.46070313 27.64179687 6.47265625 28.77734375 C6.375 31.5 6.375 31.5 5.375 32.5 C3.87761876 32.5979057 2.37557108 32.62974864 0.875 32.625 C0.0603125 32.62757812 -0.754375 32.63015625 -1.59375 32.6328125 C-3.625 32.5 -3.625 32.5 -4.625 31.5 C-4.86027773 29.15012738 -5.03886417 26.79443961 -5.1875 24.4375 C-5.27128906 23.14714844 -5.35507812 21.85679688 -5.44140625 20.52734375 C-5.50199219 19.52832031 -5.56257813 18.52929688 -5.625 17.5 C-5.955 17.5 -6.285 17.5 -6.625 17.5 C-6.625 15.52 -6.625 13.54 -6.625 11.5 C-5.965 11.5 -5.305 11.5 -4.625 11.5 C-4.64820312 10.87351562 -4.67140625 10.24703125 -4.6953125 9.6015625 C-4.71335937 8.78429687 -4.73140625 7.96703125 -4.75 7.125 C-4.78480469 5.90683594 -4.78480469 5.90683594 -4.8203125 4.6640625 C-4.5138659 1.26863422 -3.23057088 0.61534683 0 0 Z " fill="#981514" transform="translate(27.625,83.5)"/>
<path d="M0 0 C3.3 0 6.6 0 10 0 C10.66 1.32 11.32 2.64 12 4 C11.67 4.66 11.34 5.32 11 6 C11.66 6 12.32 6 13 6 C13.12375 5.195625 13.2475 4.39125 13.375 3.5625 C13.58125 2.716875 13.7875 1.87125 14 1 C16.97463337 -0.48731668 18.67278843 -0.4313052 22 0 C27.55673097 3.11131011 31.97135969 7.79873275 36.3359375 12.36328125 C37.91775222 14.08735872 37.91775222 14.08735872 40 15 C39.91621094 14.33613281 39.83242187 13.67226562 39.74609375 12.98828125 C38.73462214 4.21792619 38.73462214 4.21792619 40 0 C41.64574566 -0.02688151 43.29161413 -0.04634123 44.9375 -0.0625 C46.31228516 -0.07990234 46.31228516 -0.07990234 47.71484375 -0.09765625 C50 0 50 0 51 1 C52.27442948 10.54406076 52.43562825 20.46243492 51 30 C50.34 30.66 49.68 31.32 49 32 C42.68447056 31.92231821 39.40340902 29.53002621 34.8125 25.625 C33.61076861 24.6379094 32.4089481 23.65092727 31.20703125 22.6640625 C30.6860083 22.22529785 30.16498535 21.7865332 29.62817383 21.33447266 C27.79677956 19.83343786 25.89434703 18.42076027 24 17 C24 21.62 24 26.24 24 31 C20.74696956 32.62651522 17.60774398 32.11453156 14 32 C11.96600896 29.96600896 12.50047917 26.0060239 12.28125 23.25 C12.23799335 21.03334648 12.23799335 21.03334648 11 20 C10.93941406 20.78246094 10.87882812 21.56492187 10.81640625 22.37109375 C10.73261719 23.38300781 10.64882812 24.39492187 10.5625 25.4375 C10.48128906 26.44683594 10.40007812 27.45617187 10.31640625 28.49609375 C10 31 10 31 9 32 C7.48071962 32.07179964 5.95832518 32.08392007 4.4375 32.0625 C3.61121094 32.05347656 2.78492187 32.04445312 1.93359375 32.03515625 C1.29550781 32.02355469 0.65742187 32.01195312 0 32 C-1.39886325 29.2022735 -1.12974597 26.87611108 -1.1328125 23.75 C-1.13410156 22.5021875 -1.13539062 21.254375 -1.13671875 19.96875 C-1.13285156 18.6590625 -1.12898438 17.349375 -1.125 16 C-1.12886719 14.6903125 -1.13273437 13.380625 -1.13671875 12.03125 C-1.13542969 10.7834375 -1.13414063 9.535625 -1.1328125 8.25 C-1.13168457 7.10015625 -1.13055664 5.9503125 -1.12939453 4.765625 C-1 2 -1 2 0 0 Z " fill="#B21916" transform="translate(98,84)"/>
<path d="M0 0 C0 1.98 0 3.96 0 6 C-0.94875 6.0825 -1.8975 6.165 -2.875 6.25 C-3.90625 6.4975 -4.9375 6.745 -6 7 C-6.68542739 8.32378681 -7.34832407 9.65927605 -8 11 C-9.49657554 12.5652258 -11.02011427 14.10489593 -12.5625 15.625 C-16.68513573 20.06425416 -18 23.04296733 -18 29.06640625 C-18 29.70449219 -18 30.34257813 -18 31 C-19.89488952 32.89488952 -22.57139146 32.18019112 -25.08984375 32.23046875 C-27 32 -27 32 -29 30 C-29.4140625 27.3984375 -29.4140625 27.3984375 -29.625 24.375 C-29.69976562 23.37210938 -29.77453125 22.36921875 -29.8515625 21.3359375 C-29.90054688 20.56507812 -29.94953125 19.79421875 -30 19 C-30.66 19 -31.32 19 -32 19 C-33.625 17.625 -33.625 17.625 -35 16 C-35 15.34 -35 14.68 -35 14 C-35.66 14 -36.32 14 -37 14 C-38.3671875 12.57421875 -38.3671875 12.57421875 -39.875 10.6875 C-42.05439745 8.04871976 -44.11145136 5.88866642 -47 4 C-47.9590625 5.2065625 -47.9590625 5.2065625 -48.9375 6.4375 C-52.10921279 9.09138213 -52.81372927 9.3543014 -56.69140625 9.66015625 C-57.49908447 9.72984619 -58.3067627 9.79953613 -59.13891602 9.87133789 C-59.75307373 9.91379639 -60.36723145 9.95625488 -61 10 C-60.99214478 10.94637329 -60.99214478 10.94637329 -60.98413086 11.91186523 C-60.96342174 14.75373347 -60.95035934 17.59558588 -60.9375 20.4375 C-60.92912109 21.43072266 -60.92074219 22.42394531 -60.91210938 23.44726562 C-60.90727539 24.86362305 -60.90727539 24.86362305 -60.90234375 26.30859375 C-60.89448853 27.62041626 -60.89448853 27.62041626 -60.88647461 28.95874023 C-61 31 -61 31 -62 32 C-69.52238806 32.23880597 -69.52238806 32.23880597 -72 31 C-72.37890625 28.3046875 -72.37890625 28.3046875 -72.5625 24.875 C-72.85096444 20.19260394 -73.24660553 15.62799461 -74 11 C-78.455 10.01 -78.455 10.01 -83 9 C-82.52063915 3.60719041 -82.52063915 3.60719041 -80.56811523 1.33007812 C-76.55473395 -0.74853213 -72.61710762 -0.46778068 -68.16015625 -0.46875 C-67.20104843 -0.47636353 -66.24194061 -0.48397705 -65.25376892 -0.49182129 C-63.22722983 -0.50261703 -61.20063512 -0.50547753 -59.17407227 -0.50097656 C-56.07669109 -0.50000445 -52.98178903 -0.54162749 -49.88476562 -0.5859375 C-47.91406766 -0.59114481 -45.94336109 -0.59383269 -43.97265625 -0.59375 C-43.04856461 -0.61014526 -42.12447296 -0.62654053 -41.17237854 -0.64343262 C-36.58802905 -0.5942647 -34.65616857 -0.53061988 -30.98486328 2.43823242 C-30.00235596 3.70630737 -30.00235596 3.70630737 -29 5 C-25.49621924 8.59866961 -25.49621924 8.59866961 -21 10 C-21 9.34 -21 8.68 -21 8 C-19.8125 6.6875 -19.8125 6.6875 -18 5 C-16.8553125 3.700625 -16.8553125 3.700625 -15.6875 2.375 C-10.7687427 -1.97180878 -6.17290915 -1.11112365 0 0 Z " fill="#8F1615" transform="translate(248,84)"/>
<path d="M0 0 C7.45482515 -0.23422528 13.00847667 0.36396418 19.48046875 4.19921875 C17.60546875 9.07421875 17.60546875 9.07421875 16.48046875 10.19921875 C13.32462555 9.835083 10.23842488 9.37257432 7.140625 8.6640625 C4.10201182 8.13308604 1.25076537 8.10284186 -1.83203125 8.13671875 C-2.90066406 8.14574219 -3.96929687 8.15476562 -5.0703125 8.1640625 C-5.87855469 8.17566406 -6.68679687 8.18726563 -7.51953125 8.19921875 C-7.51953125 8.85921875 -7.51953125 9.51921875 -7.51953125 10.19921875 C-8.32390625 10.83859375 -9.12828125 11.47796875 -9.95703125 12.13671875 C-12.75673857 14.00957807 -12.75673857 14.00957807 -13.51953125 17.19921875 C-12.22015625 17.17859375 -10.92078125 17.15796875 -9.58203125 17.13671875 C-4.825708 17.12916903 -0.23564172 17.60034758 4.48046875 18.19921875 C3.88382917 22.22653594 2.62335795 24.59062071 -0.51953125 27.19921875 C-5.90076524 27.93819102 -11.3551465 27.58115793 -16.76953125 27.38476562 C-23.30384907 27.26561836 -23.30384907 27.26561836 -29.02539062 30.02490234 C-31.17009395 32.18423106 -31.17009395 32.18423106 -32.94238281 34.47338867 C-33.4628418 35.0429126 -33.98330078 35.61243652 -34.51953125 36.19921875 C-35.50953125 36.19921875 -36.49953125 36.19921875 -37.51953125 36.19921875 C-37.54015625 36.87984375 -37.56078125 37.56046875 -37.58203125 38.26171875 C-39.15303873 43.18420886 -43.12370144 46.79588106 -47.546875 49.38671875 C-52.1439523 51.28016841 -56.46430221 50.37703437 -60.95703125 48.69921875 C-62.13265625 48.20421875 -63.30828125 47.70921875 -64.51953125 47.19921875 C-64.2734375 45.27734375 -64.2734375 45.27734375 -63.51953125 43.19921875 C-61.734375 42.43359375 -61.734375 42.43359375 -59.45703125 41.94921875 C-51.7345271 39.71116818 -47.30981254 33.31095694 -42.51953125 27.19921875 C-39.03884167 23.62184335 -35.40746856 20.23331033 -31.70703125 16.88671875 C-27.38871764 12.96249203 -23.19786883 8.95466042 -19.140625 4.7578125 C-13.72618888 -0.44787427 -7.09965754 0.40186741 0 0 Z " fill="#DB1711" transform="translate(154.51953125,6.80078125)"/>
<path d="M0 0 C1.67257655 -0.30228556 3.33890357 -0.63993399 5 -1 C9.1638424 -1.28854697 13.32727703 -1.32254291 17.5 -1.375 C18.62792969 -1.41238281 19.75585938 -1.44976562 20.91796875 -1.48828125 C29.22932763 -1.5768046 29.22932763 -1.5768046 33.13671875 1.34765625 C34.05904297 2.66056641 34.05904297 2.66056641 35 4 C35.763125 4.928125 36.52625 5.85625 37.3125 6.8125 C37.869375 7.534375 38.42625 8.25625 39 9 C39.33 5.7 39.66 2.4 40 -1 C55.74487472 -1.18451025 55.74487472 -1.18451025 63 0 C63 1.65 63 3.3 63 5 C61.54176788 5.0270043 60.08339325 5.04639787 58.625 5.0625 C57.81289062 5.07410156 57.00078125 5.08570313 56.1640625 5.09765625 C54 5 54 5 52 4 C53.62078662 7.17009472 53.62078662 7.17009472 56.1640625 7.51171875 C57.38222656 7.59873047 57.38222656 7.59873047 58.625 7.6875 C59.44226563 7.75324219 60.25953125 7.81898438 61.1015625 7.88671875 C61.72804688 7.92410156 62.35453125 7.96148437 63 8 C63 9.65 63 11.3 63 13 C59.37 13 55.74 13 52 13 C53.75614771 15.18651744 53.75614771 15.18651744 55.91015625 15.16015625 C56.62042969 15.12792969 57.33070313 15.09570312 58.0625 15.0625 C59.361875 15.041875 60.66125 15.02125 62 15 C63 16 63 16 63 21 C58.05 21.33 53.1 21.66 48 22 C47.01 19.03 47.01 19.03 46 16 C46 17.32 46 18.64 46 20 C44.35 20.33 42.7 20.66 41 21 C38 17.25 38 17.25 38 15 C37.34 15 36.68 15 36 15 C34.375 13 34.375 13 33 11 C33 13.97 33 16.94 33 20 C31.35 20.66 29.7 21.32 28 22 C25.55935413 16.35600642 25.80710901 11.02248522 26 5 C23.69 4.67 21.38 4.34 19 4 C19 9.61 19 15.22 19 21 C17.35 20.67 15.7 20.34 14 20 C13.15318867 14.91913204 12.90961901 10.15171623 13 5 C10.03 4.505 10.03 4.505 7 4 C6.67 9.28 6.34 14.56 6 20 C4.35 20.33 2.7 20.66 1 21 C0.34 18.03 -0.32 15.06 -1 12 C-1.33 12.33 -1.66 12.66 -2 13 C-3.68608966 13.07205511 -5.37500659 13.08386068 -7.0625 13.0625 C-7.98160156 13.05347656 -8.90070313 13.04445312 -9.84765625 13.03515625 C-10.55792969 13.02355469 -11.26820312 13.01195312 -12 13 C-12 15.64 -12 18.28 -12 21 C-13.65 20.67 -15.3 20.34 -17 20 C-18.13537936 13.32964627 -18.87457064 6.59075233 -17 0 C-14.72979256 -0.19493195 -12.45879711 -0.38070418 -10.1875 -0.5625 C-8.92292969 -0.66691406 -7.65835938 -0.77132812 -6.35546875 -0.87890625 C-3 -1 -3 -1 0 0 Z M-7.125 4.5 C-8.03507812 4.5928125 -8.94515625 4.685625 -9.8828125 4.78125 C-10.93082031 4.88953125 -10.93082031 4.88953125 -12 5 C-12 6.32 -12 7.64 -12 9 C-10.7625 8.979375 -9.525 8.95875 -8.25 8.9375 C-5.3359175 8.93233319 -2.79046673 9.06984442 0 10 C0 8.02 0 6.04 0 4 C-2.40222283 4 -4.7351597 4.25488817 -7.125 4.5 Z " fill="#8A8A8A" transform="translate(86,128)"/>
<path d="M0 0 C2.64 0 5.28 0 8 0 C8 9.24 8 18.48 8 28 C5.69 28 3.38 28 1 28 C-0.625 26.1875 -0.625 26.1875 -2 24 C-3.65365406 22.97862543 -5.32376502 21.98387706 -7 21 C-9.32961394 19.17076088 -11.62843398 17.3096696 -13.9140625 15.42578125 C-15.99167708 13.71785205 -15.99167708 13.71785205 -19 14 C-19.33 18.29 -19.66 22.58 -20 27 C-21.65 27 -23.3 27 -25 27 C-25 18.42 -25 9.84 -25 1 C-23.35 1 -21.7 1 -20 1 C-20 1.66 -20 2.32 -20 3 C-19.21625 3.2475 -18.4325 3.495 -17.625 3.75 C-14.53506013 5.22139994 -14.46340773 6.07318455 -13 9 C-10.78566059 10.08742694 -10.78566059 10.08742694 -8 11 C-5.30919258 12.28799316 -2.65946087 13.64773176 0 15 C0 10.05 0 5.1 0 0 Z " fill="#EE130D" transform="translate(51,86)"/>
<path d="M0 0 C15.74487472 -0.18451025 15.74487472 -0.18451025 23 1 C23 2.65 23 4.3 23 6 C21.54176788 6.0270043 20.08339325 6.04639787 18.625 6.0625 C17.81289062 6.07410156 17.00078125 6.08570313 16.1640625 6.09765625 C14 6 14 6 12 5 C13.62078662 8.17009472 13.62078662 8.17009472 16.1640625 8.51171875 C17.38222656 8.59873047 17.38222656 8.59873047 18.625 8.6875 C19.44226563 8.75324219 20.25953125 8.81898438 21.1015625 8.88671875 C22.04128906 8.94279297 22.04128906 8.94279297 23 9 C23 10.65 23 12.3 23 14 C19.37 14 15.74 14 12 14 C13.75614771 16.18651744 13.75614771 16.18651744 15.91015625 16.16015625 C16.62042969 16.12792969 17.33070313 16.09570312 18.0625 16.0625 C19.361875 16.041875 20.66125 16.02125 22 16 C23 17 23 17 23 22 C18.05 22.33 13.1 22.66 8 23 C7.34 21.02 6.68 19.04 6 17 C6 18.32 6 19.64 6 21 C4.35 21.33 2.7 21.66 1 22 C-2 18.25 -2 18.25 -2 16 C-2.66 16 -3.32 16 -4 16 C-4.28875 15.21625 -4.5775 14.4325 -4.875 13.625 C-5.84912254 10.90328368 -5.84912254 10.90328368 -8 9 C-8.33 12.3 -8.66 15.6 -9 19 C-9.99 19.33 -10.98 19.66 -12 20 C-12 13.73 -12 7.46 -12 1 C-5.29353406 2.34129319 -4.73583618 4.5265656 -1 10 C-0.67 6.7 -0.34 3.4 0 0 Z " fill="#ADADAD" transform="translate(126,127)"/>
<path d="M0 0 C1.65 0 3.3 0 5 0 C5.33 6.93 5.66 13.86 6 21 C9.63 21 13.26 21 17 21 C17.33 20.01 17.66 19.02 18 18 C19.65 18.33 21.3 18.66 23 19 C23.03738281 20.04800781 23.07476562 21.09601562 23.11328125 22.17578125 C23.17894515 23.55472305 23.24539235 24.93362771 23.3125 26.3125 C23.33505859 27.00279297 23.35761719 27.69308594 23.38085938 28.40429688 C23.55234057 32.45242458 23.55234057 32.45242458 25.54296875 35.85546875 C26.02378906 36.23316406 26.50460938 36.61085937 27 37 C27 37.66 27 38.32 27 39 C27.721875 39.103125 28.44375 39.20625 29.1875 39.3125 C32.27548048 40.06733967 34.33525871 41.29183251 37 43 C38.32608822 43.68096422 39.65686601 44.35330586 41 45 C41 45.99 41 46.98 41 48 C33.53910363 46.67629258 23.76408461 44.46661015 19 38 C18.55859375 35.3359375 18.55859375 35.3359375 18.4375 32.375 C18.35452296 29.48827909 18.35452296 29.48827909 18 27 C14.88196601 25.25464401 14.88196601 25.25464401 6 26 C5.67 32.93 5.34 39.86 5 47 C3.68 47 2.36 47 1 47 C1.50603992 44.83125748 1.99983813 43.00032373 3 41 C2.34 41 1.68 41 1 41 C0.93941406 40.08476563 0.87882812 39.16953125 0.81640625 38.2265625 C0.73261719 37.03804687 0.64882813 35.84953125 0.5625 34.625 C0.48128906 33.44164062 0.40007813 32.25828125 0.31640625 31.0390625 C0.18915064 28.08481099 0.18915064 28.08481099 -1 26 C-1.01630435 24.03871487 -0.96451476 22.0766712 -0.87890625 20.1171875 C-0.80639648 18.36728516 -0.80639648 18.36728516 -0.73242188 16.58203125 C-0.67634766 15.35871094 -0.62027344 14.13539062 -0.5625 12.875 C-0.48418945 11.02841797 -0.48418945 11.02841797 -0.40429688 9.14453125 C-0.2743256 6.09611412 -0.13934981 3.0480005 0 0 Z " fill="#F0160F" transform="translate(52,14)"/>
<path d="M0 0 C8.58 0 17.16 0 26 0 C26 0.99 26 1.98 26 3 C22.81175432 4.59412284 19.37103338 4.10174735 15.875 4.0625 C15.12089844 4.05798828 14.36679688 4.05347656 13.58984375 4.04882812 C11.72652873 4.03703499 9.86325445 4.01909942 8 4 C8 5.65 8 7.3 8 9 C14.27 9 20.54 9 27 9 C25.48571429 15.05714286 25.48571429 15.05714286 24 17 C20.84765625 17.57421875 20.84765625 17.57421875 17.0625 17.6875 C11.93989843 17.83193538 11.93989843 17.83193538 7 19 C7.020625 20.134375 7.04125 21.26875 7.0625 22.4375 C7 26 7 26 6 27 C4.02 27 2.04 27 0 27 C0 18.09 0 9.18 0 0 Z " fill="#F0160C" transform="translate(64,87)"/>
<path d="M0 0 C1.32 0 2.64 0 4 0 C3.85879286 1.93784265 3.71187127 3.87526955 3.5625 5.8125 C3.48128906 6.89144531 3.40007813 7.97039063 3.31640625 9.08203125 C3 12 3 12 2 15 C3.32 15.33 4.64 15.66 6 16 C6 22.93 6 29.86 6 37 C3.36 37 0.72 37 -2 37 C-2 32.05 -2 27.1 -2 22 C-2.66 22 -3.32 22 -4 22 C-4 24.31 -4 26.62 -4 29 C-6.31 29 -8.62 29 -11 29 C-11 21.74 -11 14.48 -11 7 C-8.69 7 -6.38 7 -4 7 C-4 9.64 -4 12.28 -4 15 C-3.34 14.67 -2.68 14.34 -2 14 C-1.56848028 10.98688185 -1.56848028 10.98688185 -1.4375 7.5 C-1.09644087 1.09644087 -1.09644087 1.09644087 0 0 Z " fill="#F4140E" transform="translate(43,20)"/>
<path d="M0 0 C3.3 0 6.6 0 10 0 C11.61404287 4.84212861 11.184521 9.80474787 11.1875 14.875 C11.19974609 15.96425781 11.21199219 17.05351563 11.22460938 18.17578125 C11.22750977 19.75552734 11.22750977 19.75552734 11.23046875 21.3671875 C11.23457764 22.32737793 11.23868652 23.28756836 11.24291992 24.27685547 C10.98336766 27.18644941 10.21281798 29.35685593 9 32 C2.9453125 32.1953125 2.9453125 32.1953125 1 32 C-2.8191273 28.1808727 -2.66504179 22.18919387 -3 17 C-2.44219653 4.88439306 -2.44219653 4.88439306 0 0 Z " fill="#E31812" transform="translate(153,84)"/>
<path d="M0 0 C2.12890625 -0.328125 2.12890625 -0.328125 4.5625 -0.25 C5.36816406 -0.23453125 6.17382812 -0.2190625 7.00390625 -0.203125 C9 0 9 0 10 1 C10.41485595 5.4249877 10.51733007 9.87219939 10.6875 14.3125 C10.74744141 15.56224609 10.80738281 16.81199219 10.86914062 18.09960938 C10.91619141 19.30037109 10.96324219 20.50113281 11.01171875 21.73828125 C11.05772217 22.84212158 11.10372559 23.94596191 11.15112305 25.08325195 C11.0006501 27.98745269 10.51723603 29.55752059 9 32 C7.52093108 32.02689216 6.04172517 32.04634621 4.5625 32.0625 C3.73878906 32.07410156 2.91507813 32.08570313 2.06640625 32.09765625 C0 32 0 32 -1 31 C-1.2434864 28.55611797 -1.42712274 26.13796801 -1.5625 23.6875 C-1.6035083 22.96925049 -1.6445166 22.25100098 -1.68676758 21.51098633 C-2.62903011 3.94354516 -2.62903011 3.94354516 0 0 Z " fill="#E50D08" transform="translate(10,84)"/>
<path d="M0 0 C10.23 0 20.46 0 31 0 C29 4 29 4 26 6 C21.545 6.495 21.545 6.495 17 7 C16.67 13.93 16.34 20.86 16 28 C13.69 28 11.38 28 9 28 C8.67 21.07 8.34 14.14 8 7 C4.7 7 1.4 7 -2 7 C-1.125 2.25 -1.125 2.25 0 0 Z " fill="#E21610" transform="translate(169,85)"/>
<path d="M0 0 C1.9375 2.5 1.9375 2.5 3 5 C2.10237015 8.05194148 0.32535032 9.88604516 -2 12 C-5.70884034 10.31268143 -8.3277096 8.0622868 -11.31640625 5.33984375 C-14.8535617 2.52489173 -18.83938713 2.71673661 -23.1875 2.4375 C-24.45980469 2.35371094 -25.73210937 2.26992188 -27.04296875 2.18359375 C-28.50669922 2.09271484 -28.50669922 2.09271484 -30 2 C-30 -1.3 -30 -4.6 -30 -8 C-18.52312881 -10.20709061 -8.73552763 -7.8159984 0 0 Z " fill="#DCDBDB" transform="translate(112,21)"/>
<path d="M0 0 C1.22778854 2.45557708 1.06631063 4.01468671 1 6.75 C0.96106761 9.75644547 1.05668033 12.33378417 1.5625 15.3125 C2.03026124 18.18589047 1.73984349 20.20503569 1 23 C2.98 22.67 4.96 22.34 7 22 C7.12375 21.38125 7.2475 20.7625 7.375 20.125 C8 18 8 18 10 16 C13.5 15.75 13.5 15.75 17 16 C19.71087776 18.71087776 19.22846058 20.28072619 19.3125 24.0625 C19.78584903 31.70370575 22.12583764 36.5869322 27 42.375 C29.21606511 44.1755529 31.50589821 45.6143879 34 47 C33.01 47.495 33.01 47.495 32 48 C28.85240898 46.62292893 26.43840236 45.43840236 24 43 C21.93125966 42.3574765 21.93125966 42.3574765 20 42 C19.505 40.02 19.505 40.02 19 38 C17.68 37.67 16.36 37.34 15 37 C15.66 37 16.32 37 17 37 C16.01 29.575 16.01 29.575 15 22 C13.68 21.67 12.36 21.34 11 21 C10.67 22.32 10.34 23.64 10 25 C8.18757948 25.02687279 6.37504767 25.04633715 4.5625 25.0625 C3.55316406 25.07410156 2.54382813 25.08570312 1.50390625 25.09765625 C-1 25 -1 25 -2 24 C-2.08685603 22.43827255 -2.10702219 20.87270656 -2.09765625 19.30859375 C-2.09443359 18.36435547 -2.09121094 17.42011719 -2.08789062 16.44726562 C-2.07951172 15.45404297 -2.07113281 14.46082031 -2.0625 13.4375 C-2.05798828 12.44041016 -2.05347656 11.44332031 -2.04882812 10.41601562 C-2.03700007 7.94395151 -2.02051849 5.47200482 -2 3 C-3.65 3 -5.3 3 -7 3 C-6.99476318 3.56509277 -6.98952637 4.13018555 -6.98413086 4.71240234 C-6.96337578 7.2665903 -6.9503446 9.82076053 -6.9375 12.375 C-6.92912109 13.26445312 -6.92074219 14.15390625 -6.91210938 15.0703125 C-6.90888672 15.92109375 -6.90566406 16.771875 -6.90234375 17.6484375 C-6.89710693 18.43395996 -6.89187012 19.21948242 -6.88647461 20.02880859 C-7 22 -7 22 -8 24 C-8.66 24 -9.32 24 -10 24 C-10 18.72 -10 13.44 -10 8 C-12.64 8 -15.28 8 -18 8 C-17.67 7.34 -17.34 6.68 -17 6 C-14.69 6 -12.38 6 -10 6 C-9.731875 5.030625 -9.46375 4.06125 -9.1875 3.0625 C-8.5996875 1.5465625 -8.5996875 1.5465625 -8 0 C-4.69693408 -1.10102197 -3.28414305 -0.95067299 0 0 Z " fill="#A21716" transform="translate(59,11)"/>
<path d="M0 0 C0.66 0.33 1.32 0.66 2 1 C0.02 1.99 0.02 1.99 -2 3 C-2 3.66 -2 4.32 -2 5 C-3.57421875 6.55078125 -3.57421875 6.55078125 -5.6875 8.3125 C-6.41582031 8.93769531 -7.14414063 9.56289063 -7.89453125 10.20703125 C-8.58933594 10.79871094 -9.28414062 11.39039063 -10 12 C-14.00141491 15.43463871 -14.00141491 15.43463871 -15.75 20.25 C-17.61247582 25.83742746 -21.54149697 29.26429183 -26 33 C-26.74636719 33.35449219 -27.49273437 33.70898438 -28.26171875 34.07421875 C-28.83535156 34.37972656 -29.40898438 34.68523438 -30 35 C-30.144375 35.99 -30.28875 36.98 -30.4375 38 C-30.623125 38.99 -30.80875 39.98 -31 41 C-33.5625 42.375 -33.5625 42.375 -36 43 C-33.80085503 43.59197613 -33.80085503 43.59197613 -31 43 C-28.42739828 40.87919817 -26.20745501 38.49372439 -24 36 C-23.67 36.99 -23.34 37.98 -23 39 C-24.24354886 40.29787866 -25.4951264 41.58806759 -26.75 42.875 C-27.44609375 43.59429687 -28.1421875 44.31359375 -28.859375 45.0546875 C-31.97364156 47.88480566 -34.05686741 48.90931417 -38.25 49.3125 C-42.70933422 48.94088882 -45.8888542 47.73100876 -50 46 C-49.75390625 44.078125 -49.75390625 44.078125 -49 42 C-47.21484375 41.234375 -47.21484375 41.234375 -44.9375 40.75 C-37.21499585 38.51194943 -32.79028129 32.11173819 -28 26 C-24.51931042 22.4226246 -20.88793731 19.03409158 -17.1875 15.6875 C-12.86918639 11.76327328 -8.67833758 7.75544167 -4.62109375 3.55859375 C-3 2 -3 2 0 0 Z " fill="#E21510" transform="translate(140,8)"/>
<path d="M0 0 C0.66 0 1.32 0 2 0 C2 1.98 2 3.96 2 6 C9.425 6.99 9.425 6.99 17 8 C17 9.32 17 10.64 17 12 C7.96278689 12.94242818 -0.92551747 13.11157151 -10 13 C-10.28230469 13.58652344 -10.56460938 14.17304687 -10.85546875 14.77734375 C-13.69373867 20.28920581 -16.55479554 23.94537311 -22 27 C-22.99700894 28.04577568 -23.97508859 29.10979972 -24.9375 30.1875 C-27.32477875 32.69879323 -27.71623523 32.96847058 -31.375 33.375 C-32.24125 33.25125 -33.1075 33.1275 -34 33 C-33.34 32.01 -32.68 31.02 -32 30 C-30.68 30 -29.36 30 -28 30 C-28.165 29.13375 -28.33 28.2675 -28.5 27.375 C-28 24 -28 24 -26.4296875 22.51171875 C-25.02152129 21.51850646 -23.60290248 20.53999706 -22.17578125 19.57421875 C-17.54082313 16.22073917 -14.33469664 12.55553217 -13 7 C-11.125 5.1875 -11.125 5.1875 -9 4 C-8.01 4.33 -7.02 4.66 -6 5 C-6.99 6.485 -6.99 6.485 -8 8 C-5.43827469 6.06139707 -3.24719239 4.32958985 -1.3125 1.75 C-0.879375 1.1725 -0.44625 0.595 0 0 Z " fill="#F1150D" transform="translate(137,19)"/>
<path d="M0 0 C2.31 0 4.62 0 7 0 C7.02905924 3.7499837 7.04681874 7.49993837 7.0625 11.25 C7.07087891 12.31347656 7.07925781 13.37695312 7.08789062 14.47265625 C7.09272461 16.00986328 7.09272461 16.00986328 7.09765625 17.578125 C7.10551147 18.99206543 7.10551147 18.99206543 7.11352539 20.43457031 C7.00968082 22.78123437 6.66706529 24.75644478 6 27 C-0.01500102 27.4561641 -3.44165338 24.62264082 -8 21 C-10.25 18.4375 -10.25 18.4375 -12 16 C-12.9075 15.13375 -13.815 14.2675 -14.75 13.375 C-17 11 -17 11 -17 8 C-12.48279689 7.63374029 -12.48279689 7.63374029 -10.1875 9.375 C-9 11 -9 11 -9 13 C-6.36 13.33 -3.72 13.66 -1 14 C-0.67 9.38 -0.34 4.76 0 0 Z " fill="#EC1710" transform="translate(140,86)"/>
<path d="M0 0 C2.6875 -0.3125 2.6875 -0.3125 6 0 C8.5625 2.1875 8.5625 2.1875 11 5 C13.45817955 7.79245093 13.45817955 7.79245093 16 10 C17.32 10 18.64 10 20 10 C20.2475 9.4225 20.495 8.845 20.75 8.25 C22.16817251 5.69728947 23.91045129 4.02214391 26 2 C26.33 1.34 26.66 0.68 27 0 C28.65 0 30.3 0 32 0 C31.01 0.33 30.02 0.66 29 1 C28.97873047 2.01320313 28.97873047 2.01320313 28.95703125 3.046875 C28.81095716 5.77885524 28.6007191 8.32871717 28 11 C26.7625 11.9590625 26.7625 11.9590625 25.5 12.9375 C22.75762422 14.75521461 22.75762422 14.75521461 22.484375 17.640625 C22.33083017 19.63670784 22.2148196 21.63611438 22.140625 23.63671875 C22 26 22 26 21 27 C18 27.125 18 27.125 15 27 C14 26 14 26 13.90234375 23.93359375 C13.91394531 23.10988281 13.92554688 22.28617188 13.9375 21.4375 C13.94652344 20.61121094 13.95554688 19.78492187 13.96484375 18.93359375 C13.97644531 18.29550781 13.98804688 17.65742187 14 17 C13.01 17 12.02 17 11 17 C9.99260254 15.33779419 8.99477045 13.66979326 8 12 C6.81367229 10.81096378 5.60332422 9.64560035 4.375 8.5 C1.58033929 5.81124222 0.12248381 4.04196575 0 0 Z " fill="#EA0E0A" transform="translate(207,87)"/>
<path d="M0 0 C2.31 0 4.62 0 7 0 C7.66 1.98 8.32 3.96 9 6 C10.299375 5.979375 11.59875 5.95875 12.9375 5.9375 C14.29165633 5.91600546 15.64756083 5.92851801 17 6 C18 7 18 7 18.09765625 8.84765625 C18.06510417 10.8984375 18.03255208 12.94921875 18 15 C18.66 14.67 19.32 14.34 20 14 C25.53846154 13.76923077 25.53846154 13.76923077 28 15 C28 16.65 28 18.3 28 20 C30.31 20.33 32.62 20.66 35 21 C35 24.63 35 28.26 35 32 C34.05125 32.2475 33.1025 32.495 32.125 32.75 C28.55882089 33.77508516 28.55882089 33.77508516 27 38 C27 30.74 27 23.48 27 16 C24.36 16 21.72 16 19 16 C19 18.64 19 21.28 19 24 C18.34 24 17.68 24 17 24 C17 18.72 17 13.44 17 8 C14.69 8 12.38 8 10 8 C10 13.28 10 18.56 10 24 C9.01 24 8.02 24 7 24 C7 16.74 7 9.48 7 2 C4.69 2 2.38 2 0 2 C0 9.26 0 16.52 0 24 C-3.3 24 -6.6 24 -10 24 C-9.505 22.515 -9.505 22.515 -9 21 C-9 21.66 -9 22.32 -9 23 C-6.69 23 -4.38 23 -2 23 C-2.01047363 22.44538086 -2.02094727 21.89076172 -2.03173828 21.31933594 C-2.07342004 18.79627041 -2.09936438 16.27327747 -2.125 13.75 C-2.14175781 12.87730469 -2.15851563 12.00460938 -2.17578125 11.10546875 C-2.18222656 10.26113281 -2.18867188 9.41679687 -2.1953125 8.546875 C-2.20578613 7.77182617 -2.21625977 6.99677734 -2.22705078 6.19824219 C-1.97326556 3.74116461 -1.22444152 2.12688458 0 0 Z " fill="#787878" transform="translate(199,11)"/>
<path d="M0 0 C2.64 0 5.28 0 8 0 C8 9.24 8 18.48 8 28 C5.69 28 3.38 28 1 28 C-0.625 26.1875 -0.625 26.1875 -2 24 C-3.65365406 22.97862543 -5.32376502 21.98387706 -7 21 C-10.04211575 18.71969139 -13.02439342 16.36622309 -16 14 C-12.21625991 14 -10.25136751 15.10336895 -7 17 C-5.98758315 18.32392972 -4.98560611 19.65599167 -4 21 C-1.90584196 21.79623822 -1.90584196 21.79623822 0 22 C0 20.35 0 18.7 0 17 C-1.32 16.67 -2.64 16.34 -4 16 C-4 15.01 -4 14.02 -4 13 C-2.68 13.66 -1.36 14.32 0 15 C0 10.05 0 5.1 0 0 Z " fill="#F4150D" transform="translate(51,86)"/>
<path d="M0 0 C0.671875 2.11328125 0.671875 2.11328125 1 4 C0.06027344 3.85691406 0.06027344 3.85691406 -0.8984375 3.7109375 C-1.71570313 3.60007813 -2.53296875 3.48921875 -3.375 3.375 C-4.18710938 3.25898438 -4.99921875 3.14296875 -5.8359375 3.0234375 C-6.55007812 3.01570312 -7.26421875 3.00796875 -8 3 C-8.66 3.66 -9.32 4.32 -10 5 C-9.30132812 5.18175781 -8.60265625 5.36351562 -7.8828125 5.55078125 C-6.97273437 5.80214844 -6.06265625 6.05351562 -5.125 6.3125 C-3.76761719 6.67794922 -3.76761719 6.67794922 -2.3828125 7.05078125 C0 8 0 8 2 11 C1.8125 14.5625 1.8125 14.5625 1 18 C-2.20624887 20.13749925 -3.22458103 20.29574999 -6.9375 20.3125 C-7.79214844 20.32925781 -8.64679688 20.34601563 -9.52734375 20.36328125 C-12.4421356 19.93504169 -13.81326679 18.92290461 -16 17 C-15.67 15.68 -15.34 14.36 -15 13 C-14.1646875 13.2165625 -14.1646875 13.2165625 -13.3125 13.4375 C-12.549375 13.623125 -11.78625 13.80875 -11 14 C-10.154375 14.2475 -9.30875 14.495 -8.4375 14.75 C-7.633125 14.8325 -6.82875 14.915 -6 15 C-4.34218911 13.56637904 -4.34218911 13.56637904 -3 12 C-4.03060547 11.85304687 -4.03060547 11.85304687 -5.08203125 11.703125 C-5.98308594 11.55359375 -6.88414062 11.4040625 -7.8125 11.25 C-8.70582031 11.11078125 -9.59914062 10.9715625 -10.51953125 10.828125 C-13.54515091 9.81799686 -14.4522818 8.74977934 -16 6 C-15.92266167 2.82912865 -15.50073984 1.50073984 -13.25 -0.75 C-8.04859267 -3.63967074 -5.0130631 -3.30406432 0 0 Z " fill="#B9B9B9" transform="translate(167,129)"/>
<path d="M0 0 C2.5 1.3125 2.5 1.3125 4 3 C4 3.99 4 4.98 4 6 C0.78600767 6.08927756 -1.9062789 5.8534403 -5 5 C-5.66 5 -6.32 5 -7 5 C-7 5.99 -7 6.98 -7 8 C-5.7625 8.0825 -4.525 8.165 -3.25 8.25 C-0.32316212 8.63469983 1.0069736 9.00442228 3.5625 10.625 C5 13 5 13 4.9375 16.625 C4 20 4 20 1 22 C-1.33984375 22.30078125 -1.33984375 22.30078125 -3.9375 22.3125 C-4.79214844 22.32925781 -5.64679688 22.34601563 -6.52734375 22.36328125 C-9.4421356 21.93504169 -10.81326679 20.92290461 -13 19 C-12.67 17.68 -12.34 16.36 -12 15 C-11.195625 15.2165625 -11.195625 15.2165625 -10.375 15.4375 C-6.9564963 16.24714561 -3.52233727 17 0 17 C-0.33 16.01 -0.66 15.02 -1 14 C-3.01240016 13.34171437 -3.01240016 13.34171437 -5.375 13.0625 C-9.75099545 12.21238623 -9.75099545 12.21238623 -12.125 10.1875 C-13.25073999 7.37315002 -12.90247596 5.85784054 -12 3 C-9.8657453 -1.26850939 -4.21021004 -0.48286111 0 0 Z " fill="#CACACA" transform="translate(183,127)"/>
<path d="M0 0 C2.64 0 5.28 0 8 0 C8 10.23 8 20.46 8 31 C1 30 1 30 0 29 C-0.08775605 26.85441173 -0.10695219 24.70595579 -0.09765625 22.55859375 C-0.09443359 21.25341797 -0.09121094 19.94824219 -0.08789062 18.60351562 C-0.07953401 17.2148431 -0.07106905 15.82617123 -0.0625 14.4375 C-0.05748666 13.04492344 -0.05292347 11.65234519 -0.04882812 10.25976562 C-0.03699434 6.8398013 -0.0205088 3.41992156 0 0 Z " fill="#DC1813" transform="translate(99,85)"/>
<path d="M0 0 C-0.33 1.65 -0.66 3.3 -1 5 C-4.3 5 -7.6 5 -11 5 C-11 6.32 -11 7.64 -11 9 C-9.72125 8.814375 -8.4425 8.62875 -7.125 8.4375 C-3.25 7.875 -3.25 7.875 -1 9 C-1 10.32 -1 11.64 -1 13 C-4.3 13 -7.6 13 -11 13 C-11 15.64 -11 18.28 -11 21 C-12.65 20.67 -14.3 20.34 -16 20 C-17.13537936 13.32964627 -17.87457064 6.59075233 -16 0 C-13.7089095 -0.19441368 -11.41709663 -0.38033135 -9.125 -0.5625 C-7.21074219 -0.71912109 -7.21074219 -0.71912109 -5.2578125 -0.87890625 C-2 -1 -2 -1 0 0 Z " fill="#909090" transform="translate(85,128)"/>
<path d="M0 0 C0.33 0 0.66 0 1 0 C1 5.28 1 10.56 1 16 C0.34 16 -0.32 16 -1 16 C-1 13.36 -1 10.72 -1 8 C-3.31 8 -5.62 8 -8 8 C-8 15.26 -8 22.52 -8 30 C-5.69 30 -3.38 30 -1 30 C-1 27.69 -1 25.38 -1 23 C-0.34 23 0.32 23 1 23 C1 27.95 1 32.9 1 38 C0.67 38 0.34 38 0 38 C0 35.69 0 33.38 0 31 C-2.97 31 -5.94 31 -9 31 C-9.66 29.02 -10.32 27.04 -11 25 C-12.65 25 -14.3 25 -16 25 C-17.32630565 20.85529486 -17.98384711 15.96769422 -16 12 C-12.9375 11.375 -12.9375 11.375 -10 11 C-9.7834375 10.0409375 -9.7834375 10.0409375 -9.5625 9.0625 C-9 7 -9 7 -8 6 C-5.67182036 5.63239269 -3.3381615 5.29758419 -1 5 C-0.67 3.35 -0.34 1.7 0 0 Z " fill="#420606" transform="translate(40,19)"/>
<path d="M0 0 C6.79012527 -0.14761142 9.85732234 3.13908947 14.62109375 7.69921875 C15.79865234 8.83810547 15.79865234 8.83810547 17 10 C18.97152588 11.70605309 20.97963685 13.35180901 23 15 C22.87431641 14.00419922 22.87431641 14.00419922 22.74609375 12.98828125 C21.73462214 4.21792619 21.73462214 4.21792619 23 0 C24.64574566 -0.02688151 26.29161413 -0.04634123 27.9375 -0.0625 C28.85402344 -0.07410156 29.77054688 -0.08570312 30.71484375 -0.09765625 C33 0 33 0 34 1 C35.27442948 10.54406076 35.43562825 20.46243492 34 30 C33.34 30.66 32.68 31.32 32 32 C25.90116042 31.88271462 23.23606658 30.02942919 19 26 C22 26 22 26 31 29 C31.33 20.09 31.66 11.18 32 2 C29.69 2 27.38 2 25 2 C25 6.62 25 11.24 25 16 C23.68 16.33 22.36 16.66 21 17 C19.359375 15.8125 19.359375 15.8125 17.75 14 C17.14800781 13.35804687 16.54601562 12.71609375 15.92578125 12.0546875 C15.29027344 11.37664062 14.65476563 10.69859375 14 10 C8.04309445 3.94359566 8.04309445 3.94359566 0 2 C0 1.34 0 0.68 0 0 Z " fill="#851613" transform="translate(115,84)"/>
<path d="M0 0 C1.65 0.33 3.3 0.66 5 1 C5.03738281 2.04800781 5.07476562 3.09601562 5.11328125 4.17578125 C5.17894515 5.55472305 5.24539235 6.93362771 5.3125 8.3125 C5.33505859 9.00279297 5.35761719 9.69308594 5.38085938 10.40429688 C5.55234057 14.45242458 5.55234057 14.45242458 7.54296875 17.85546875 C8.02378906 18.23316406 8.50460938 18.61085938 9 19 C9 19.66 9 20.32 9 21 C9.721875 21.103125 10.44375 21.20625 11.1875 21.3125 C14.27548048 22.06733967 16.33525871 23.29183251 19 25 C20.32608822 25.68096422 21.65686601 26.35330586 23 27 C23 27.99 23 28.98 23 30 C15.54157297 28.67673069 5.76060886 26.46724223 1 20 C0.55939776 17.14879513 0.49809922 14.37786312 0.40625 11.49609375 C0.2721875 10.67238281 0.138125 9.84867188 0 9 C-0.99 8.34 -1.98 7.68 -3 7 C-2.690625 6.401875 -2.38125 5.80375 -2.0625 5.1875 C-0.89790296 2.91043228 -0.89790296 2.91043228 0 0 Z " fill="#EA140B" transform="translate(70,32)"/>
<path d="M0 0 C-1.32 0.33 -2.64 0.66 -4 1 C-4 1.66 -4 2.32 -4 3 C-7.3 3.66 -10.6 4.32 -14 5 C-14 5.99 -14 6.98 -14 8 C-13.01257813 8.04898437 -12.02515625 8.09796875 -11.0078125 8.1484375 C-9.72648437 8.22320312 -8.44515625 8.29796875 -7.125 8.375 C-5.84882813 8.44460937 -4.57265625 8.51421875 -3.2578125 8.5859375 C0 9 0 9 2 11 C1.87844546 14.40352706 -0.01525385 17.10684486 -2.17895508 19.65429688 C-6.06702422 22.5274752 -11.14523358 22.17542233 -15.8125 22.375 C-16.88693359 22.44332031 -17.96136719 22.51164062 -19.06835938 22.58203125 C-21.71182189 22.74651336 -24.35400295 22.88491518 -27 23 C-27.33 23.99 -27.66 24.98 -28 26 C-29.62652316 27.70586575 -31.29006566 29.3777546 -33 31 C-32.34 29.68 -31.68 28.36 -31 27 C-34.88913264 27.5761678 -37.01054984 29.56123803 -40 32 C-40.66 32 -41.32 32 -42 32 C-42 31.01 -42 30.02 -42 29 C-40.34634594 27.97862543 -38.67623498 26.98387706 -37 26 C-36.2265625 24.98292969 -35.453125 23.96585938 -34.65625 22.91796875 C-31.55922605 19.75739895 -29.08172697 19.54062555 -24.7265625 19.4140625 C-22.35866352 19.45374796 -19.99112027 19.52502309 -17.625 19.625 C-15.80548828 19.66560547 -15.80548828 19.66560547 -13.94921875 19.70703125 C-10.96431689 19.77754074 -7.98308162 19.87604924 -5 20 C-4.55527344 19.09507813 -4.55527344 19.09507813 -4.1015625 18.171875 C-2.85017604 15.70460241 -1.4421515 13.35988427 0 11 C-1.299375 11.020625 -2.59875 11.04125 -3.9375 11.0625 C-8.69382325 11.07004972 -13.28388953 10.59887117 -18 10 C-17.29822123 6.76513406 -16.63523506 5.10818805 -14 3 C-13.34 3 -12.68 3 -12 3 C-12 2.34 -12 1.68 -12 1 C-7.9472484 0.01751476 -4.16138263 -0.08159574 0 0 Z " fill="#400805" transform="translate(159,14)"/>
<path d="M0 0 C5 1 5 1 7.1875 3.25 C8.86845968 5.80042159 9.9671125 8.13969614 11 11 C11.33 11.33 11.66 11.66 12 12 C12.33 8.37 12.66 4.74 13 1 C13.99 1 14.98 1 16 1 C16 7.27 16 13.54 16 20 C14.68 20 13.36 20 12 20 C11.34 18.35 10.68 16.7 10 15 C9.34 15 8.68 15 8 15 C7.71125 14.21625 7.4225 13.4325 7.125 12.625 C6.15087746 9.90328368 6.15087746 9.90328368 4 8 C3.67 11.3 3.34 14.6 3 18 C2.01 18.33 1.02 18.66 0 19 C0 12.73 0 6.46 0 0 Z " fill="#D9D9D9" transform="translate(114,128)"/>
<path d="M0 0 C3.3 0 6.6 0 10 0 C10.66 1.32 11.32 2.64 12 4 C11.67 4.66 11.34 5.32 11 6 C11.66 6 12.32 6 13 6 C13.33 4.35 13.66 2.7 14 1 C14.66 1.33 15.32 1.66 16 2 C15.67 2.33 15.34 2.66 15 3 C14.8415735 5.0708472 14.74875578 7.14678029 14.68359375 9.22265625 C14.64169922 10.48271484 14.59980469 11.74277344 14.55664062 13.04101562 C14.51682404 14.38150736 14.47711186 15.7220022 14.4375 17.0625 C14.39431958 18.40691523 14.35070544 19.7513166 14.30664062 21.09570312 C14.20014642 24.3970234 14.0981354 27.69842236 14 31 C13.67 31 13.34 31 13 31 C12.93941406 30.28972656 12.87882812 29.57945313 12.81640625 28.84765625 C12.73261719 27.92855469 12.64882812 27.00945312 12.5625 26.0625 C12.48128906 25.14597656 12.40007812 24.22945312 12.31640625 23.28515625 C12.23955024 21.03840268 12.23955024 21.03840268 11 20 C10.67 23.63 10.34 27.26 10 31 C9.67 31 9.34 31 9 31 C9 21.1 9 11.2 9 1 C6.36 1 3.72 1 1 1 C1.33 10.57 1.66 20.14 2 30 C3.98 30.33 5.96 30.66 8 31 C8 31.33 8 31.66 8 32 C5.36 32 2.72 32 0 32 C-1.39886325 29.2022735 -1.12974597 26.87611108 -1.1328125 23.75 C-1.13410156 22.5021875 -1.13539062 21.254375 -1.13671875 19.96875 C-1.13285156 18.6590625 -1.12898438 17.349375 -1.125 16 C-1.12886719 14.6903125 -1.13273437 13.380625 -1.13671875 12.03125 C-1.13542969 10.7834375 -1.13414063 9.535625 -1.1328125 8.25 C-1.13168457 7.10015625 -1.13055664 5.9503125 -1.12939453 4.765625 C-1 2 -1 2 0 0 Z " fill="#5D0C0B" transform="translate(98,84)"/>
<path d="M0 0 C2.31 0 4.62 0 7 0 C7 2.31 7 4.62 7 7 C6.67 7 6.34 7 6 7 C6 5.02 6 3.04 6 1 C4.35 1 2.7 1 1 1 C1 7.6 1 14.2 1 21 C2.32 20.67 3.64 20.34 5 20 C5.33 17.69 5.66 15.38 6 13 C7.32 12.67 8.64 12.34 10 12 C10.66 13.65 11.32 15.3 12 17 C13.65 16.01 15.3 15.02 17 14 C17 19.28 17 24.56 17 30 C14.36 30 11.72 30 9 30 C9 25.05 9 20.1 9 15 C8.34 15 7.68 15 7 15 C7 17.31 7 19.62 7 22 C4.69 22 2.38 22 0 22 C0 14.74 0 7.48 0 0 Z " fill="#C61C17" transform="translate(32,27)"/>
<path d="M0 0 C3.3 0 6.6 0 10 0 C10 7.26 10 14.52 10 22 C12.31 22 14.62 22 17 22 C17 14.74 17 7.48 17 0 C17.99 0 18.98 0 20 0 C20 5.28 20 10.56 20 16 C22.31 16 24.62 16 27 16 C27 10.72 27 5.44 27 0 C27.66 0 28.32 0 29 0 C29 2.64 29 5.28 29 8 C31.64 8 34.28 8 37 8 C37 8.33 37 8.66 37 9 C34.36 9.33 31.72 9.66 29 10 C28.67 12.31 28.34 14.62 28 17 C23.05 17.495 23.05 17.495 18 18 C18.33 19.32 18.66 20.64 19 22 C18 23 18 23 15.93359375 23.09765625 C15.10988281 23.08605469 14.28617188 23.07445313 13.4375 23.0625 C12.61121094 23.05347656 11.78492188 23.04445313 10.93359375 23.03515625 C9.97646484 23.01775391 9.97646484 23.01775391 9 23 C7.76308349 19.16163211 7.8671671 15.44402655 7.875 11.4375 C7.87113281 10.76525391 7.86726562 10.09300781 7.86328125 9.40039062 C7.86938927 6.32500248 8.02008771 3.93973687 9 1 C4.545 1.495 4.545 1.495 0 2 C0 1.34 0 0.68 0 0 Z " fill="#747474" transform="translate(189,41)"/>
<path d="M0 0 C1.65 0 3.3 0 5 0 C4.34 1.65 3.68 3.3 3 5 C4.32 5 5.64 5 7 5 C6.67 11.93 6.34 18.86 6 26 C4.02 26 2.04 26 0 26 C0 17.42 0 8.84 0 0 Z " fill="#EF160E" transform="translate(114,87)"/>
<path d="M0 0 C3.3 0 6.6 0 10 0 C11.61980717 4.85942152 11.18452269 9.84928405 11.1875 14.9375 C11.19974609 16.03513672 11.21199219 17.13277344 11.22460938 18.26367188 C11.22750977 19.84825195 11.22750977 19.84825195 11.23046875 21.46484375 C11.23457764 22.430271 11.23868652 23.39569824 11.24291992 24.39038086 C11 27 11 27 9 31 C9 21.43 9 11.86 9 2 C6.36 2 3.72 2 1 2 C1.33 10.91 1.66 19.82 2 29 C3.98 29.66 5.96 30.32 8 31 C8 31.33 8 31.66 8 32 C4.625 32.125 4.625 32.125 1 32 C-2.8191273 28.1808727 -2.66504179 22.18919387 -3 17 C-2.44219653 4.88439306 -2.44219653 4.88439306 0 0 Z " fill="#791413" transform="translate(153,84)"/>
<path d="M0 0 C2.64 0 5.28 0 8 0 C7.47503374 3.98559909 6.4940498 6.02045576 3.75 8.9375 C2.81027344 9.97583984 2.81027344 9.97583984 1.8515625 11.03515625 C0.74396038 12.21052306 -0.3810242 13.37038647 -1.5390625 14.49609375 C-5.30125668 18.37929418 -5.64306493 21.75751572 -5.859375 26.92578125 C-6 29 -6 29 -7 30 C-12.73611111 30.27314815 -12.73611111 30.27314815 -15 30 C-17.49505962 27.50494038 -17.35948376 26.32671112 -17.625 22.875 C-17.69976562 21.96492188 -17.77453125 21.05484375 -17.8515625 20.1171875 C-17.90054688 19.41851562 -17.94953125 18.71984375 -18 18 C-17.01 18 -16.02 18 -15 18 C-14.67 20.97 -14.34 23.94 -14 27 C-12.02 27 -10.04 27 -8 27 C-7.97873047 25.87851563 -7.97873047 25.87851563 -7.95703125 24.734375 C-7.81245787 21.74913015 -7.6005073 18.92961777 -7 16 C-6.195625 15.360625 -5.39125 14.72125 -4.5625 14.0625 C-0.6893133 10.94505704 -0.88299796 7.24941557 -0.26171875 2.484375 C-0.17535156 1.66453125 -0.08898437 0.8446875 0 0 Z " fill="#BF1210" transform="translate(236,86)"/>
<path d="M0 0 C0.33 0.66 0.66 1.32 1 2 C2.299375 1.979375 3.59875 1.95875 4.9375 1.9375 C9.69382325 1.92995028 14.28388953 2.40112883 19 3 C18.4210755 6.90774039 16.72795055 9.19108944 14 12 C11.25439453 12.58007812 11.25439453 12.58007812 8.1328125 12.53125 C6.99972656 12.53769531 5.86664063 12.54414062 4.69921875 12.55078125 C2.32421717 12.51703806 -0.05078284 12.48318462 -2.42578125 12.44921875 C-9.64306321 12.29981231 -9.64306321 12.29981231 -15.8203125 15.53125 C-16.53960937 16.3459375 -17.25890625 17.160625 -18 18 C-16.61217074 15.01082928 -15.30946155 12.36768327 -13 10 C-9.84765625 9.390625 -9.84765625 9.390625 -6.0625 9.25 C-5.07237915 9.20661499 -5.07237915 9.20661499 -4.06225586 9.16235352 C1.95499672 8.92438307 7.97942749 8.89909655 14 9 C14 7.68 14 6.36 14 5 C13.32453125 5.02320313 12.6490625 5.04640625 11.953125 5.0703125 C10.61507812 5.09738281 10.61507812 5.09738281 9.25 5.125 C8.36828125 5.14820313 7.4865625 5.17140625 6.578125 5.1953125 C3.8864142 4.99139502 2.30095026 4.36551721 0 3 C0 2.01 0 1.02 0 0 Z " fill="#CD1A18" transform="translate(140,22)"/>
<path d="M0 0 C2.64 0 5.28 0 8 0 C8 9.24 8 18.48 8 28 C5.69 28 3.38 28 1 28 C-0.625 26.1875 -0.625 26.1875 -2 24 C-3.65365406 22.97862543 -5.32376502 21.98387706 -7 21 C-10.04211575 18.71969139 -13.02439342 16.36622309 -16 14 C-12.21625991 14 -10.25136751 15.10336895 -7 17 C-5.98758315 18.32392972 -4.98560611 19.65599167 -4 21 C-1.90584196 21.79623822 -1.90584196 21.79623822 0 22 C0 20.35 0 18.7 0 17 C-1.32 16.67 -2.64 16.34 -4 16 C-4 15.01 -4 14.02 -4 13 C-2.68 13.66 -1.36 14.32 0 15 C0 10.05 0 5.1 0 0 Z M1 1 C0.97283176 3.54173977 0.95308031 6.08318415 0.9375 8.625 C0.92912109 9.33785156 0.92074219 10.05070312 0.91210938 10.78515625 C0.8969844 14.08240074 1.01206821 17.0710776 1.56640625 20.3359375 C2 23 2 23 1 26 C3.47266765 25.65555119 3.47266765 25.65555119 6 25 C7.25248502 22.49502996 7.11374406 20.79146726 7.09765625 17.9921875 C7.09443359 17.00605469 7.09121094 16.01992187 7.08789062 15.00390625 C7.07951172 13.97136719 7.07113281 12.93882813 7.0625 11.875 C7.05573242 10.31458984 7.05573242 10.31458984 7.04882812 8.72265625 C7.03701952 6.14838038 7.02055075 3.57421854 7 1 C5.02 1 3.04 1 1 1 Z " fill="#D01F1C" transform="translate(51,86)"/>
<path d="M0 0 C1.19109375 0.00773438 1.19109375 0.00773438 2.40625 0.015625 C3.2003125 0.01046875 3.994375 0.0053125 4.8125 0 C6.90625 0.265625 6.90625 0.265625 8.90625 2.265625 C8.87337417 4.99431907 8.34227229 7.5622868 7.90625 10.265625 C4.63723906 11.99627785 3.31883945 12.36877236 -0.34375 11.453125 C-3.09375 10.265625 -3.09375 10.265625 -4.09375 9.265625 C-4.28125 5.828125 -4.28125 5.828125 -4.09375 2.265625 C-2.09375 0.265625 -2.09375 0.265625 0 0 Z " fill="#691110" transform="translate(70.09375,12.734375)"/>
<path d="M0 0 C2.12890625 -0.328125 2.12890625 -0.328125 4.5625 -0.25 C5.36816406 -0.23453125 6.17382812 -0.2190625 7.00390625 -0.203125 C9 0 9 0 10 1 C10.41422006 5.44593351 10.51714159 9.91388112 10.6875 14.375 C10.74744141 15.633125 10.80738281 16.89125 10.86914062 18.1875 C10.91619141 19.39148438 10.96324219 20.59546875 11.01171875 21.8359375 C11.05772217 22.94501465 11.10372559 24.0540918 11.15112305 25.19677734 C11 28 11 28 9 31 C8.67 21.76 8.34 12.52 8 3 C5.69 2.67 3.38 2.34 1 2 C1 11.57 1 21.14 1 31 C2.98 31 4.96 31 7 31 C7 31.33 7 31.66 7 32 C4.66705225 32.04241723 2.33297433 32.04092937 0 32 C-1.96124767 30.03875233 -1.41399759 26.37554664 -1.5625 23.6875 C-1.6035083 22.96925049 -1.6445166 22.25100098 -1.68676758 21.51098633 C-2.62903011 3.94354516 -2.62903011 3.94354516 0 0 Z " fill="#5B0807" transform="translate(10,84)"/>
<path d="M0 0 C2.31 0 4.62 0 7 0 C7.66 1.98 8.32 3.96 9 6 C11.64 6 14.28 6 17 6 C17 6.33 17 6.66 17 7 C14.36 7 11.72 7 9 7 C9 12.28 9 17.56 9 23 C8.34 23 7.68 23 7 23 C7 16.07 7 9.14 7 2 C4.69 2 2.38 2 0 2 C0 9.26 0 16.52 0 24 C-3.3 24 -6.6 24 -10 24 C-9.505 22.515 -9.505 22.515 -9 21 C-9 21.66 -9 22.32 -9 23 C-6.69 23 -4.38 23 -2 23 C-2.01047363 22.44538086 -2.02094727 21.89076172 -2.03173828 21.31933594 C-2.07342004 18.79627041 -2.09936438 16.27327747 -2.125 13.75 C-2.14175781 12.87730469 -2.15851563 12.00460938 -2.17578125 11.10546875 C-2.18222656 10.26113281 -2.18867188 9.41679687 -2.1953125 8.546875 C-2.20578613 7.77182617 -2.21625977 6.99677734 -2.22705078 6.19824219 C-1.97326556 3.74116461 -1.22444152 2.12688458 0 0 Z " fill="#646464" transform="translate(199,11)"/>
<path d="M0 0 C0.66 0.33 1.32 0.66 2 1 C1.67 2.010625 1.34 3.02125 1 4.0625 C0.14894958 6.93625243 0.02101877 8.6305631 0.125 11.75 C0 15 0 15 -2 16.9375 C-2.66 17.288125 -3.32 17.63875 -4 18 C-3.42415568 15.61435923 -2.77772405 13.33317216 -2 11 C-8.27 11 -14.54 11 -21 11 C-21 9.68 -21 8.36 -21 7 C-15.06 6.67 -9.12 6.34 -3 6 C-2.01 4.02 -1.02 2.04 0 0 Z " fill="#220707" transform="translate(93,85)"/>
<path d="M0 0 C2.97 0 5.94 0 9 0 C8.67 6.93 8.34 13.86 8 21 C12.95 21 17.9 21 23 21 C23 21.33 23 21.66 23 22 C18.05 22.33 13.1 22.66 8 23 C7.34 21.02 6.68 19.04 6 17 C6 18.32 6 19.64 6 21 C4.35 21.33 2.7 21.66 1 22 C1.99 21.67 2.98 21.34 4 21 C4 14.73 4 8.46 4 2 C3.01 2 2.02 2 1 2 C1 5.96 1 9.92 1 14 C-0.32 13.01 -1.64 12.02 -3 11 C-2.67 10.34 -2.34 9.68 -2 9 C-1.67 9.33 -1.34 9.66 -1 10 C-0.67 6.7 -0.34 3.4 0 0 Z " fill="#606060" transform="translate(126,127)"/>
<path d="M0 0 C0.33 0 0.66 0 1 0 C1 4.62 1 9.24 1 14 C-0.98 14.99 -2.96 15.98 -5 17 C-5.96044102 19.07690578 -5.96044102 19.07690578 -6 21 C-5.34 21 -4.68 21 -4 21 C-4 22.65 -4 24.3 -4 26 C-5.65 26.33 -7.3 26.66 -9 27 C-9 20.4 -9 13.8 -9 7 C-7.35 7 -5.7 7 -4 7 C-3.67 8.98 -3.34 10.96 -3 13 C-2.34 13 -1.68 13 -1 13 C-0.67 8.71 -0.34 4.42 0 0 Z " fill="#E41612" transform="translate(42,21)"/>
<path d="M0 0 C4.95 0 9.9 0 15 0 C15 0.66 15 1.32 15 2 C13.02 2 11.04 2 9 2 C9 7.61 9 13.22 9 19 C7.68 19 6.36 19 5 19 C4.15318867 13.91913204 3.90961901 9.15171623 4 4 C2.68 3.34 1.36 2.68 0 2 C0 1.34 0 0.68 0 0 Z " fill="#B4B4B4" transform="translate(95,129)"/>
<path d="M0 0 C3.63 0 7.26 0 11 0 C11.390625 2.18098958 11.78125 4.36197917 12.171875 6.54296875 C13.2645631 9.78495373 14.57687565 11.56896986 17 14 C19.55290072 15.26386761 21.90520157 16.29675505 24.5625 17.25 C25.23474609 17.50523438 25.90699219 17.76046875 26.59960938 18.0234375 C29.38178152 19.07331378 32.1789725 20.0596575 35 21 C35.495 19.515 35.495 19.515 36 18 C36 19.32 36 20.64 36 22 C31.30976546 21.43393721 26.65499974 20.81462495 22 20 C22 19.34 22 18.68 22 18 C20.948125 17.938125 20.948125 17.938125 19.875 17.875 C15.7853533 16.63032492 13.3998833 14.52369573 11 11 C9.98031719 8.03277136 9.40056834 5.10785778 9 2 C6.69 2 4.38 2 2 2 C1.67 8.93 1.34 15.86 1 23 C-1.64 23 -4.28 23 -7 23 C-7 22.67 -7 22.34 -7 22 C-4.69 22 -2.38 22 0 22 C0 14.74 0 7.48 0 0 Z " fill="#640D0B" transform="translate(58,41)"/>
<path d="M0 0 C7.17765043 0.47851003 7.17765043 0.47851003 10.5625 2.625 C12 5 12 5 11.9375 8.625 C11 12 11 12 8 14 C5.66015625 14.30078125 5.66015625 14.30078125 3.0625 14.3125 C2.20785156 14.32925781 1.35320312 14.34601563 0.47265625 14.36328125 C-2.4421356 13.93504169 -3.81326679 12.92290461 -6 11 C-5.67 9.68 -5.34 8.36 -5 7 C-4.195625 7.2165625 -4.195625 7.2165625 -3.375 7.4375 C0.0435037 8.24714561 3.47766273 9 7 9 C6.67 7.68 6.34 6.36 6 5 C6.66 5 7.32 5 8 5 C8.33 5.99 8.66 6.98 9 8 C9 6.68 9 5.36 9 4 C6.03 3.01 3.06 2.02 0 1 C0 0.67 0 0.34 0 0 Z " fill="#C9C9C9" transform="translate(176,135)"/>
<path d="M0 0 C2.31 0 4.62 0 7 0 C8 1 8 1 8.11352539 3.77563477 C8.10828857 4.98533936 8.10305176 6.19504395 8.09765625 7.44140625 C8.09443359 8.74658203 8.09121094 10.05175781 8.08789062 11.39648438 C8.07953401 12.7851569 8.07106905 14.17382877 8.0625 15.5625 C8.05748666 16.95507656 8.05292347 18.34765481 8.04882812 19.74023438 C8.03699434 23.1601987 8.0205088 26.58007844 8 30 C5.36 29.67 2.72 29.34 0 29 C0 19.43 0 9.86 0 0 Z M1 1 C1 9.58 1 18.16 1 27 C2.65 27 4.3 27 6 27 C6 18.42 6 9.84 6 1 C4.35 1 2.7 1 1 1 Z " fill="#CE1715" transform="translate(11,86)"/>
<path d="M0 0 C1.65322266 0.01740234 1.65322266 0.01740234 3.33984375 0.03515625 C4.99693359 0.04869141 4.99693359 0.04869141 6.6875 0.0625 C7.54214844 0.07410156 8.39679688 0.08570313 9.27734375 0.09765625 C9.27734375 0.75765625 9.27734375 1.41765625 9.27734375 2.09765625 C5.97734375 2.42765625 2.67734375 2.75765625 -0.72265625 3.09765625 C-1.05265625 4.74765625 -1.38265625 6.39765625 -1.72265625 8.09765625 C1.90734375 8.09765625 5.53734375 8.09765625 9.27734375 8.09765625 C9.27734375 8.75765625 9.27734375 9.41765625 9.27734375 10.09765625 C5.64734375 10.09765625 2.01734375 10.09765625 -1.72265625 10.09765625 C-1.72265625 12.07765625 -1.72265625 14.05765625 -1.72265625 16.09765625 C1.90734375 16.09765625 5.53734375 16.09765625 9.27734375 16.09765625 C9.27734375 16.75765625 9.27734375 17.41765625 9.27734375 18.09765625 C4.98734375 18.09765625 0.69734375 18.09765625 -3.72265625 18.09765625 C-3.74949937 15.28509344 -3.76941813 12.47278384 -3.78515625 9.66015625 C-3.79353516 8.85771484 -3.80191406 8.05527344 -3.81054688 7.22851562 C-3.81917055 5.18470404 -3.77493775 3.14081723 -3.72265625 1.09765625 C-2.72265625 0.09765625 -2.72265625 0.09765625 0 0 Z " fill="#F2F2F2" transform="translate(138.72265625,128.90234375)"/>
<path d="M0 0 C4.62 0 9.24 0 14 0 C14 0.66 14 1.32 14 2 C10.7 2.33 7.4 2.66 4 3 C3.67 4.98 3.34 6.96 3 9 C6.3 9 9.6 9 13 9 C13 9.66 13 10.32 13 11 C9.7 11 6.4 11 3 11 C3 13.64 3 16.28 3 19 C2.01 19 1.02 19 0 19 C0 12.73 0 6.46 0 0 Z " fill="#E5E5E5" transform="translate(70,129)"/>
<path d="M0 0 C0.33 0.99 0.66 1.98 1 3 C-0.24354886 4.29787866 -1.4951264 5.58806759 -2.75 6.875 C-3.44609375 7.59429687 -4.1421875 8.31359375 -4.859375 9.0546875 C-7.97364156 11.88480566 -10.05686741 12.90931417 -14.25 13.3125 C-18.70933422 12.94088882 -21.8888542 11.73100876 -26 10 C-25.81640625 8.109375 -25.81640625 8.109375 -25 6 C-22.71484375 4.953125 -22.71484375 4.953125 -19.9375 4.25 C-18.55884766 3.88648438 -18.55884766 3.88648438 -17.15234375 3.515625 C-16.44207031 3.34546875 -15.73179688 3.1753125 -15 3 C-15.33 3.99 -15.66 4.98 -16 6 C-17.32 6 -18.64 6 -20 6 C-20 7.32 -20 8.64 -20 10 C-14.96083202 10.26804085 -11.29128673 9.92484049 -7.109375 6.9296875 C-4.65223355 4.69017858 -2.28886395 2.41061203 0 0 Z " fill="#881615" transform="translate(116,44)"/>
<path d="M0 0 C1.45880109 0.14107747 2.91703551 0.28802415 4.375 0.4375 C5.59316406 0.55931641 5.59316406 0.55931641 6.8359375 0.68359375 C9 1 9 1 11 2 C11.02688151 3.64574566 11.04634123 5.29161413 11.0625 6.9375 C11.07410156 7.85402344 11.08570313 8.77054688 11.09765625 9.71484375 C11 12 11 12 10 13 C7 13.125 7 13.125 4 13 C3 12 3 12 2.90234375 9.93359375 C2.91974609 8.69802734 2.91974609 8.69802734 2.9375 7.4375 C2.94652344 6.61121094 2.95554688 5.78492187 2.96484375 4.93359375 C2.97644531 4.29550781 2.98804688 3.65742187 3 3 C2.01 3 1.02 3 0 3 C0 2.01 0 1.02 0 0 Z " fill="#D11110" transform="translate(218,101)"/>
<path d="M0 0 C2.6875 -0.3125 2.6875 -0.3125 6 0 C8.5625 2.125 8.5625 2.125 11 5 C11.46921875 5.55042969 11.9384375 6.10085937 12.421875 6.66796875 C13.63119727 8.09809424 14.81769772 9.5474572 16 11 C14.68 11 13.36 11 12 11 C11.01 12.485 11.01 12.485 10 14 C8.50868963 12.61714856 7.03234815 11.21814261 5.5625 9.8125 C4.73878906 9.03519531 3.91507813 8.25789063 3.06640625 7.45703125 C0.87705998 4.8538199 0.32606505 3.33772044 0 0 Z " fill="#E21109" transform="translate(207,87)"/>
<path d="M0 0 C0.33 0 0.66 0 1 0 C1 5.28 1 10.56 1 16 C0.34 16 -0.32 16 -1 16 C-1 13.36 -1 10.72 -1 8 C-3.31 8 -5.62 8 -8 8 C-8 15.26 -8 22.52 -8 30 C-5.69 30 -3.38 30 -1 30 C-1 27.69 -1 25.38 -1 23 C-0.34 23 0.32 23 1 23 C1 27.95 1 32.9 1 38 C0.67 38 0.34 38 0 38 C0 35.69 0 33.38 0 31 C-2.97 31 -5.94 31 -9 31 C-9.02886984 27.02084841 -9.04675406 23.04172347 -9.0625 19.0625 C-9.07087891 17.92619141 -9.07925781 16.78988281 -9.08789062 15.61914062 C-9.09111328 14.53955078 -9.09433594 13.45996094 -9.09765625 12.34765625 C-9.10289307 11.34742432 -9.10812988 10.34719238 -9.11352539 9.31665039 C-9 7 -9 7 -8 6 C-5.67182036 5.63239269 -3.3381615 5.29758419 -1 5 C-0.67 3.35 -0.34 1.7 0 0 Z " fill="#620B0A" transform="translate(40,19)"/>
<path d="M0 0 C0.66 0 1.32 0 2 0 C2 1.32 2 2.64 2 4 C8.27 4 14.54 4 21 4 C19.45098039 10.19607843 19.45098039 10.19607843 18 12 C15.17482275 12.46588547 12.70920439 12.69615501 9.875 12.75 C9.12089844 12.77964844 8.36679688 12.80929688 7.58984375 12.83984375 C5.72714047 12.91057932 3.86356245 12.95754983 2 13 C2.33 12.01 2.66 11.02 3 10 C7.95 10 12.9 10 18 10 C18 8.68 18 7.36 18 6 C16.78441406 6.01160156 15.56882812 6.02320312 14.31640625 6.03515625 C12.73177236 6.04453278 11.14713682 6.05363313 9.5625 6.0625 C8.76005859 6.07087891 7.95761719 6.07925781 7.13085938 6.08789062 C5.08704779 6.0965143 3.04316098 6.0522815 1 6 C0 5 0 5 -0.0625 2.4375 C-0.041875 1.633125 -0.02125 0.82875 0 0 Z " fill="#AF1B19" transform="translate(70,92)"/>
<path d="M0 0 C3.3 0 6.6 0 10 0 C10 0.33 10 0.66 10 1 C7.03 1 4.06 1 1 1 C1.2784375 2.7325 1.2784375 2.7325 1.5625 4.5 C2.38998198 11.66001768 1.57075832 18.84356876 1 26 C1.99 26 2.98 26 4 26 C4.03738281 25.38511719 4.07476562 24.77023438 4.11328125 24.13671875 C4.17902344 23.32847656 4.24476562 22.52023438 4.3125 21.6875 C4.37050781 20.88699219 4.42851563 20.08648437 4.48828125 19.26171875 C5 17 5 17 6.03125 15.21875 C9.2037524 13.25481994 12.58058882 13.68964451 16.1875 13.8125 C16.93708984 13.82603516 17.68667969 13.83957031 18.45898438 13.85351562 C20.30629767 13.88881461 22.15324066 13.94262083 24 14 C24 14.33 24 14.66 24 15 C19.05 15.33 14.1 15.66 9 16 C9 16.99 9 17.98 9 19 C8.34 19 7.68 19 7 19 C7.020625 20.134375 7.04125 21.26875 7.0625 22.4375 C7 26 7 26 6 27 C4.02 27 2.04 27 0 27 C0 18.09 0 9.18 0 0 Z " fill="#E21916" transform="translate(64,87)"/>
<path d="M0 0 C0.66 0.33 1.32 0.66 2 1 C0.02 1.99 0.02 1.99 -2 3 C-2 3.66 -2 4.32 -2 5 C-3.328125 6.3046875 -3.328125 6.3046875 -5.25 7.875 C-9.76565294 11.68659953 -13.86942916 15.83247727 -17.96191406 20.08740234 C-19.27195774 21.42774345 -20.63228766 22.71855875 -22 24 C-22.66 24 -23.32 24 -24 24 C-24.32097656 24.81210937 -24.32097656 24.81210937 -24.6484375 25.640625 C-26.48077943 28.8392797 -28.99796606 31.20964484 -31.625 33.75 C-32.140625 34.25660156 -32.65625 34.76320312 -33.1875 35.28515625 C-34.45383339 36.52803902 -35.7263144 37.76465276 -37 39 C-37.66 38.67 -38.32 38.34 -39 38 C-38.54109375 37.55269531 -38.0821875 37.10539062 -37.609375 36.64453125 C-34.15672542 33.24265593 -31.00630154 29.80798195 -28 26 C-24.51922103 22.42270029 -20.88794708 19.03410042 -17.1875 15.6875 C-12.86918639 11.76327328 -8.67833758 7.75544167 -4.62109375 3.55859375 C-3 2 -3 2 0 0 Z " fill="#500604" transform="translate(140,8)"/>
<path d="M0 0 C3.3 0 6.6 0 10 0 C10 9.9 10 19.8 10 30 C8.02 30.33 6.04 30.66 4 31 C3.34 30.34 2.68 29.68 2 29 C4.31 29 6.62 29 9 29 C9 19.76 9 10.52 9 1 C6.36 1 3.72 1 1 1 C1 5.95 1 10.9 1 16 C-0.32 15.67 -1.64 15.34 -3 15 C-3 14.01 -3 13.02 -3 12 C-2.67 12.33 -2.34 12.66 -2 13 C-1.93941406 12.14535156 -1.87882812 11.29070312 -1.81640625 10.41015625 C-1.69072266 8.75306641 -1.69072266 8.75306641 -1.5625 7.0625 C-1.48128906 5.96035156 -1.40007813 4.85820313 -1.31640625 3.72265625 C-1 1 -1 1 0 0 Z " fill="#8F1716" transform="translate(50,85)"/>
<path d="M0 0 C4.90361457 0.72646142 7.67154412 3.34388789 11.375 6.5 C12.05691406 7.07234375 12.73882812 7.6446875 13.44140625 8.234375 C15.09908981 9.64089438 16.73890942 11.06842074 18.375 12.5 C13.48022657 12.5 10.84963242 8.66322289 7.359375 5.46875 C3.99702476 2.85756387 3.99702476 2.85756387 -2.625 3.5 C-2.955 12.74 -3.285 21.98 -3.625 31.5 C-3.955 31.5 -4.285 31.5 -4.625 31.5 C-4.955 26.88 -5.285 22.26 -5.625 17.5 C-5.955 17.5 -6.285 17.5 -6.625 17.5 C-6.625 15.52 -6.625 13.54 -6.625 11.5 C-5.965 11.5 -5.305 11.5 -4.625 11.5 C-4.64820312 10.87351562 -4.67140625 10.24703125 -4.6953125 9.6015625 C-4.71335937 8.78429687 -4.73140625 7.96703125 -4.75 7.125 C-4.78480469 5.90683594 -4.78480469 5.90683594 -4.8203125 4.6640625 C-4.5138659 1.26863422 -3.23057088 0.61534683 0 0 Z " fill="#3E0207" transform="translate(27.625,83.5)"/>
<path d="M0 0 C1.32 0 2.64 0 4 0 C4 6.6 4 13.2 4 20 C2.68 20 1.36 20 0 20 C0 13.4 0 6.8 0 0 Z " fill="#D5D5D5" transform="translate(87,129)"/>
<path d="M0 0 C0.66 0 1.32 0 2 0 C2.66 0.99 3.32 1.98 4 3 C4.99 3.33 5.98 3.66 7 4 C7.33 3.01 7.66 2.02 8 1 C8 1.66 8 2.32 8 3 C8.721875 3.103125 9.44375 3.20625 10.1875 3.3125 C13.27548048 4.06733967 15.33525871 5.29183251 18 7 C19.32608822 7.68096422 20.65686601 8.35330586 22 9 C22 9.99 22 10.98 22 12 C14.22223863 10.62007459 5.26295724 8.36648053 0 2 C0 1.34 0 0.68 0 0 Z " fill="#C41919" transform="translate(71,50)"/>
<path d="M0 0 C6.79012527 -0.14761142 9.85732234 3.13908947 14.62109375 7.69921875 C15.79865234 8.83810547 15.79865234 8.83810547 17 10 C18.97152588 11.70605309 20.97963685 13.35180901 23 15 C22.87431641 14.00419922 22.87431641 14.00419922 22.74609375 12.98828125 C21.73462214 4.21792619 21.73462214 4.21792619 23 0 C26.3 0 29.6 0 33 0 C33 0.33 33 0.66 33 1 C30.03 1 27.06 1 24 1 C24 6.28 24 11.56 24 17 C20.11068338 16.02767084 19.37103192 15.73491402 16.7578125 13.09375 C16.16613281 12.51496094 15.57445312 11.93617187 14.96484375 11.33984375 C13.74218126 10.11718126 12.5233937 8.89063104 11.30859375 7.66015625 C7.66841439 4.1147321 5.32262908 2.19532584 0 2 C0 1.34 0 0.68 0 0 Z " fill="#530705" transform="translate(115,84)"/>
<path d="M0 0 C-0.33 1.65 -0.66 3.3 -1 5 C-1.33 4.01 -1.66 3.02 -2 2 C-11.24 2 -20.48 2 -30 2 C-30 11.57 -30 21.14 -30 31 C-30.33 31 -30.66 31 -31 31 C-31 21.1 -31 11.2 -31 1 C-8.93849658 -0.18451025 -8.93849658 -0.18451025 0 0 Z " fill="#7F1110" transform="translate(93,84)"/>
<path d="M0 0 C2.475 0.495 2.475 0.495 5 1 C5.33 3.64 5.66 6.28 6 9 C5.34 8.67 4.68 8.34 4 8 C3.67 11.3 3.34 14.6 3 18 C2.01 18.33 1.02 18.66 0 19 C0 12.73 0 6.46 0 0 Z " fill="#E3E3E3" transform="translate(114,128)"/>
<path d="M0 0 C0.671875 2.11328125 0.671875 2.11328125 1 4 C0.38511719 3.91621094 -0.22976562 3.83242187 -0.86328125 3.74609375 C-1.67152344 3.64425781 -2.47976562 3.54242188 -3.3125 3.4375 C-4.11300781 3.33308594 -4.91351563 3.22867188 -5.73828125 3.12109375 C-8.16817116 2.85244822 -8.16817116 2.85244822 -11 4 C-10.67 3.01 -10.34 2.02 -10 1 C-8.02 1 -6.04 1 -4 1 C-4 0.34 -4 -0.32 -4 -1 C-5.31352023 -0.69181644 -6.62579572 -0.37832335 -7.9375 -0.0625 C-9.03384766 0.19853516 -9.03384766 0.19853516 -10.15234375 0.46484375 C-11.99969898 0.83887569 -11.99969898 0.83887569 -13 2 C-13.04063832 3.66617115 -13.042721 5.33388095 -13 7 C-10.36 7.99 -7.72 8.98 -5 10 C-5 10.33 -5 10.66 -5 11 C-12.3927665 10.51522843 -12.3927665 10.51522843 -15.0625 8.25 C-16.28626611 5.31296135 -16.13840711 3.95985849 -15 1 C-10.13130169 -3.86869831 -5.59197212 -3.68561799 0 0 Z " fill="#969696" transform="translate(167,129)"/>
<path d="M0 0 C0 1.98 0 3.96 0 6 C-1.65 6.33 -3.3 6.66 -5 7 C-4.67 5.35 -4.34 3.7 -4 2 C-7.3 2.33 -10.6 2.66 -14 3 C-14.226875 3.78375 -14.45375 4.5675 -14.6875 5.375 C-16 8 -16 8 -18.625 9.3125 C-19.40875 9.539375 -20.1925 9.76625 -21 10 C-21 8 -21 8 -19.8125 6.6875 C-19.214375 6.130625 -18.61625 5.57375 -18 5 C-17.236875 4.13375 -16.47375 3.2675 -15.6875 2.375 C-10.7687427 -1.97180878 -6.17290915 -1.11112365 0 0 Z " fill="#6E0F10" transform="translate(248,84)"/>
<path d="M0 0 C0.66 0.33 1.32 0.66 2 1 C1.67 1.33 1.34 1.66 1 2 C0.8415735 4.0708472 0.74875578 6.14678029 0.68359375 8.22265625 C0.64169922 9.48271484 0.59980469 10.74277344 0.55664062 12.04101562 C0.51682404 13.38150736 0.47711186 14.7220022 0.4375 16.0625 C0.39431958 17.40691523 0.35070544 18.7513166 0.30664062 20.09570312 C0.20014642 23.3970234 0.0981354 26.69842236 0 30 C-0.33 30 -0.66 30 -1 30 C-1.09087891 28.93458984 -1.09087891 28.93458984 -1.18359375 27.84765625 C-1.26738281 26.92855469 -1.35117188 26.00945312 -1.4375 25.0625 C-1.51871094 24.14597656 -1.59992188 23.22945312 -1.68359375 22.28515625 C-1.76044976 20.03840268 -1.76044976 20.03840268 -3 19 C-3.15582303 17.65984779 -3.25044142 16.31241097 -3.31640625 14.96484375 C-3.35830078 14.15595703 -3.40019531 13.34707031 -3.44335938 12.51367188 C-3.48267578 11.66353516 -3.52199219 10.81339844 -3.5625 9.9375 C-3.60568359 9.08349609 -3.64886719 8.22949219 -3.69335938 7.34960938 C-3.79976702 5.23327963 -3.90041731 3.11666187 -4 1 C-3.34 1.66 -2.68 2.32 -2 3 C-2.33 3.66 -2.66 4.32 -3 5 C-2.34 5 -1.68 5 -1 5 C-0.67 3.35 -0.34 1.7 0 0 Z " fill="#2B0001" transform="translate(112,85)"/>
<path d="M0 0 C0.66 0.66 1.32 1.32 2 2 C1.9765625 4.1640625 1.9765625 4.1640625 1.625 6.625 C1.51414063 7.44226563 1.40328125 8.25953125 1.2890625 9.1015625 C1.19367187 9.72804688 1.09828125 10.35453125 1 11 C2.98 10.67 4.96 10.34 7 10 C7.185625 9.071875 7.185625 9.071875 7.375 8.125 C8 6 8 6 10 4 C13.5 3.75 13.5 3.75 17 4 C19 6 19 6 19.125 9.625 C19.08375 10.73875 19.0425 11.8525 19 13 C18.67 13 18.34 13 18 13 C18 11.02 18 9.04 18 7 C15.03 7 12.06 7 9 7 C9 8.65 9 10.3 9 12 C6.03 12 3.06 12 0 12 C0 8.04 0 4.08 0 0 Z " fill="#390505" transform="translate(59,23)"/>
<path d="M0 0 C0.99 0.33 1.98 0.66 3 1 C2.34 1 1.68 1 1 1 C1 7.27 1 13.54 1 20 C1.66 19.67 2.32 19.34 3 19 C3.4683265 16.41394668 3.4683265 16.41394668 3.625 13.4375 C3.69976562 12.42558594 3.77453125 11.41367188 3.8515625 10.37109375 C3.90054688 9.58863281 3.94953125 8.80617187 4 8 C6.475 9.98 6.475 9.98 9 12 C8.67 12.66 8.34 13.32 8 14 C7.34 13.34 6.68 12.68 6 12 C6 14.97 6 17.94 6 21 C4.35 21.66 2.7 22.32 1 23 C-1.11121721 18.1178102 -1.14269695 13.89571097 -0.97265625 8.68359375 C-1.00008118 5.99203234 -1.38984457 3.61562755 -2 1 C-1.34 0.67 -0.68 0.34 0 0 Z " fill="#5A5A5A" transform="translate(113,127)"/>
<path d="M0 0 C2.5 1.3125 2.5 1.3125 4 3 C4 3.99 4 4.98 4 6 C0.78600767 6.08927756 -1.9062789 5.8534403 -5 5 C-5.66 5 -6.32 5 -7 5 C-7.33 5.99 -7.66 6.98 -8 8 C-8.33 7.01 -8.66 6.02 -9 5 C-8.67 4.34 -8.34 3.68 -8 3 C-8.99 3 -9.98 3 -11 3 C-11 2.34 -11 1.68 -11 1 C-7.29797086 -0.23400971 -3.85233255 -0.44181681 0 0 Z " fill="#9E9E9E" transform="translate(183,127)"/>
<path d="M0 0 C0 3 0 3 -1 7 C2.3 7 5.6 7 9 7 C9 14.59 9 22.18 9 30 C8.67 30 8.34 30 8 30 C7.93941406 29.14277344 7.87882813 28.28554687 7.81640625 27.40234375 C7.38856464 21.56395127 6.940837 15.77942728 6 10 C1.545 9.01 1.545 9.01 -3 8 C-2.25 2.25 -2.25 2.25 0 0 Z " fill="#4A0908" transform="translate(168,85)"/>
<path d="M0 0 C14.52 0 29.04 0 44 0 C44 0.33 44 0.66 44 1 C40.7 1 37.4 1 34 1 C34.495 3.475 34.495 3.475 35 6 C34.34 6 33.68 6 33 6 C32.34 5.34 31.68 4.68 31 4 C29.68 4.99 28.36 5.98 27 7 C28 5 29 3 30 1 C20.1 1 10.2 1 0 1 C0 0.67 0 0.34 0 0 Z " fill="#4E0707" transform="translate(170,84)"/>
<path d="M0 0 C8.49295775 3.3028169 8.49295775 3.3028169 10.5 6.0625 C12.24509481 8.3165808 13.23423473 8.61851514 16 9 C16.33 7.35 16.66 5.7 17 4 C17.66 4.66 18.32 5.32 19 6 C18.6730244 8.61580479 18.17960932 10.64078137 17 13 C19.86724686 12.42655063 20.8614515 12.1385485 23 10 C23 11.32 23 12.64 23 14 C19.625 14.1875 19.625 14.1875 16 14 C15.34 13.01 14.68 12.02 14 11 C12.33779419 9.99260254 10.66979326 8.99477045 9 8 C5.93579123 5.74811503 2.8983776 3.46267378 0 1 C0 0.67 0 0.34 0 0 Z " fill="#D71B16" transform="translate(35,99)"/>
<path d="M0 0 C2.33944736 0.28730055 4.6739143 0.61936779 7 1 C6.76228882 1.86963379 6.76228882 1.86963379 6.51977539 2.75683594 C5.71911382 6.21220398 5.62776918 9.71910303 5.4375 13.25 C5.39431641 13.99507812 5.35113281 14.74015625 5.30664062 15.5078125 C5.20103275 17.338349 5.10005799 19.16915176 5 21 C4.67 21 4.34 21 4 21 C4 14.73 4 8.46 4 2 C2.68 2 1.36 2 0 2 C0 7.61 0 13.22 0 19 C-0.33 19 -0.66 19 -1 19 C-1.83987775 14.27568764 -2.06659021 10.13671364 -1.5625 5.375 C-1.48128906 4.57835937 -1.40007812 3.78171875 -1.31640625 2.9609375 C-1 1 -1 1 0 0 Z " fill="#303030" transform="translate(87,127)"/>
<path d="M0 0 C4.10887035 2.05443518 7.23189148 4.47509037 10.78125 7.34375 C12.91414024 9.04086297 12.91414024 9.04086297 15.203125 10.0859375 C17.54235524 11.27589375 18.04552649 12.61381623 19 15 C14.67621679 13.68976266 12.06696933 11.41190341 8.78125 8.46484375 C6.39415483 6.50177206 3.81900738 5.237613 1 4 C1 7.96 1 11.92 1 16 C0.67 16 0.34 16 0 16 C0 10.72 0 5.44 0 0 Z " fill="#590605" transform="translate(33,99)"/>
<path d="M0 0 C4.29 0 8.58 0 13 0 C12.04065919 3.83736322 11.76390737 4.59660228 9 7 C9 6.01 9 5.02 9 4 C6.03 4 3.06 4 0 4 C0 2.68 0 1.36 0 0 Z " fill="#EA140C" transform="translate(170,87)"/>
<path d="M0 0 C10.23 0 20.46 0 31 0 C30.34 1.32 29.68 2.64 29 4 C28.67 3.01 28.34 2.02 28 1 C19.09 1 10.18 1 1 1 C1 2.65 1 4.3 1 6 C1.99 6.33 2.98 6.66 4 7 C2.02 7 0.04 7 -2 7 C-1.125 2.25 -1.125 2.25 0 0 Z " fill="#AD1C1E" transform="translate(169,85)"/>
<path d="M0 0 C1.43836751 0.11458693 2.87570966 0.24209116 4.3125 0.375 C5.51326172 0.47941406 5.51326172 0.47941406 6.73828125 0.5859375 C9 1 9 1 12 3 C11.34 3.66 10.68 4.32 10 5 C9.01 4.67 8.02 4.34 7 4 C7.33 5.32 7.66 6.64 8 8 C2.25 6.25 2.25 6.25 0 4 C0 2.68 0 1.36 0 0 Z " fill="#000000" transform="translate(141,42)"/>
<path d="M0 0 C0.33 0 0.66 0 1 0 C1 7.59 1 15.18 1 23 C0.34 23 -0.32 23 -1 23 C-1 17.72 -1 12.44 -1 7 C-3.64 7 -6.28 7 -9 7 C-8.67 6.34 -8.34 5.68 -8 5 C-5.69 5 -3.38 5 -1 5 C-0.67 3.35 -0.34 1.7 0 0 Z " fill="#550605" transform="translate(50,12)"/>
<path d="M0 0 C0.66 0.33 1.32 0.66 2 1 C1.67 1.33 1.34 1.66 1 2 C0.79224439 3.66204487 0.63281745 5.33029491 0.5 7 C0.11111111 11.88888889 0.11111111 11.88888889 -1 13 C-6.73611111 13.27314815 -6.73611111 13.27314815 -9 13 C-11.49505962 10.50494038 -11.35948376 9.32671112 -11.625 5.875 C-11.69976562 4.96492188 -11.77453125 4.05484375 -11.8515625 3.1171875 C-11.90054688 2.41851562 -11.94953125 1.71984375 -12 1 C-11.01 1 -10.02 1 -9 1 C-8.67 3.97 -8.34 6.94 -8 10 C-6.02 10 -4.04 10 -2 10 C-1.93941406 9.36191406 -1.87882813 8.72382812 -1.81640625 8.06640625 C-1.73261719 7.24011719 -1.64882812 6.41382812 -1.5625 5.5625 C-1.48128906 4.73878906 -1.40007812 3.91507812 -1.31640625 3.06640625 C-1 1 -1 1 0 0 Z " fill="#6A0F13" transform="translate(230,103)"/>
<path d="M0 0 C1.75 1.57421875 1.75 1.57421875 3 3 C0.23723823 2.47731534 -2.3260876 1.89130413 -5 1 C-6.70016844 0.91821886 -8.40336297 0.89250499 -10.10546875 0.90234375 C-11.57983398 0.90717773 -11.57983398 0.90717773 -13.08398438 0.91210938 C-14.62022461 0.92467773 -14.62022461 0.92467773 -16.1875 0.9375 C-17.22326172 0.94201172 -18.25902344 0.94652344 -19.32617188 0.95117188 C-21.88417266 0.9629599 -24.44205733 0.97941485 -27 1 C-26.67 0.34 -26.34 -0.32 -26 -1 C-18.01702549 -3.10078277 -7.76093438 -3.02353069 0 0 Z " fill="#700D0C" transform="translate(170,7)"/>
<path d="M0 0 C0.92039063 0.28810547 0.92039063 0.28810547 1.859375 0.58203125 C-5.37376311 7.13313648 -5.37376311 7.13313648 -8.703125 9.08203125 C-12.38450943 11.34749859 -15.17520373 14.4627841 -18.140625 17.58203125 C-18.800625 17.25203125 -19.460625 16.92203125 -20.140625 16.58203125 C-18.18823647 14.57590726 -16.22924678 12.57710692 -14.265625 10.58203125 C-13.43224609 9.72351563 -13.43224609 9.72351563 -12.58203125 8.84765625 C-11.13928096 7.38752343 -9.6431876 5.98053827 -8.140625 4.58203125 C-7.480625 4.58203125 -6.820625 4.58203125 -6.140625 4.58203125 C-6.140625 3.92203125 -6.140625 3.26203125 -6.140625 2.58203125 C-2.87983363 -0.56230328 -2.87983363 -0.56230328 0 0 Z " fill="#C01C1C" transform="translate(144.140625,8.41796875)"/>
<path d="M0 0 C4.62 0 9.24 0 14 0 C14 0.33 14 0.66 14 1 C9.71 1 5.42 1 1 1 C1 1.66 1 2.32 1 3 C7.6 3 14.2 3 21 3 C21 4.65 21 6.3 21 8 C19 9.8125 19 9.8125 17 11 C17.57584432 8.61435923 18.22227595 6.33317216 19 4 C12.73 4 6.46 4 0 4 C0 2.68 0 1.36 0 0 Z " fill="#520806" transform="translate(72,92)"/>
<path d="M0 0 C-1.231394 3.69418201 -3.20791354 5.35109746 -6 8 C-5.34 6.68 -4.68 5.36 -4 4 C-7.88913264 4.5761678 -10.01054984 6.56123803 -13 9 C-13.66 9 -14.32 9 -15 9 C-15 8.01 -15 7.02 -15 6 C-13.36935236 4.94228261 -11.69719127 3.94726954 -10 3 C-9.46375 2.46375 -8.9275 1.9275 -8.375 1.375 C-5.64950535 -1.35049465 -3.40352493 -1.05626636 0 0 Z " fill="#181112" transform="translate(132,37)"/>
<path d="M0 0 C1.07696789 2.13417491 2.12950031 4.2748578 3.1484375 6.4375 C6.42635908 13.2856419 9.26544917 17.25858287 16 21 C15.34 21.33 14.68 21.66 14 22 C8.52561426 20.00931428 5.23406721 16.70044551 2 12 C0.14704393 7.87296148 -0.21434879 4.50132464 0 0 Z " fill="#3D0403" transform="translate(77,37)"/>
<path d="M0 0 C2.16874252 0.50603992 3.99967627 0.99983813 6 2 C6 2.66 6 3.32 6 4 C10.64586892 3.51515724 10.64586892 3.51515724 15 2 C14.67 2.99 14.34 3.98 14 5 C11.05770079 5.9807664 9.0091216 6.16488128 5.9375 6.1875 C4.62072266 6.20876953 4.62072266 6.20876953 3.27734375 6.23046875 C1 6 1 6 -1 4 C-0.625 1.875 -0.625 1.875 0 0 Z " fill="#D0D0D0" transform="translate(152,142)"/>
<path d="M0 0 C1.65 0 3.3 0 5 0 C4.01 0.33 3.02 0.66 2 1 C1.67 4.3 1.34 7.6 1 11 C0.67 10.34 0.34 9.68 0 9 C-1.65 9.66 -3.3 10.32 -5 11 C-5.33 10.01 -5.66 9.02 -6 8 C-4.4045651 5.94272868 -2.73473712 3.94125344 -1 2 C-0.67 1.34 -0.34 0.68 0 0 Z " fill="#DD0F08" transform="translate(234,87)"/>
<path d="M0 0 C0.66 0 1.32 0 2 0 C2 7.26 2 14.52 2 22 C1.34 20.68 0.68 19.36 0 18 C-3.56206661 17.18129815 -3.56206661 17.18129815 -7 17 C-7 16.67 -7 16.34 -7 16 C-4.69 16 -2.38 16 0 16 C0 10.72 0 5.44 0 0 Z " fill="#600705" transform="translate(49,41)"/>
<path d="M0 0 C0 0.66 0 1.32 0 2 C-1.98 2.33 -3.96 2.66 -6 3 C-6.33 4.65 -6.66 6.3 -7 8 C-5.35 8 -3.7 8 -2 8 C-1.67 8.66 -1.34 9.32 -1 10 C-4.375 10.125 -4.375 10.125 -8 10 C-10 8 -10 8 -10.375 5.5625 C-10 3 -10 3 -8.375 1.1875 C-5.42797793 -0.28601103 -3.25295114 -0.22179212 0 0 Z " fill="#ECECEC" transform="translate(163,128)"/>
<path d="M0 0 C1.65 0 3.3 0 5 0 C5.33 2.31 5.66 4.62 6 7 C7.32 7 8.64 7 10 7 C10.33 9.31 10.66 11.62 11 14 C9.8944811 13.06409496 8.79064547 12.12620142 7.6875 11.1875 C7.07261719 10.66542969 6.45773438 10.14335938 5.82421875 9.60546875 C2.2396165 6.45071174 0.65899473 4.876561 0 0 Z " fill="#D01515" transform="translate(207,87)"/>
<path d="M0 0 C0.33 0 0.66 0 1 0 C1 9.24 1 18.48 1 28 C0.67 28 0.34 28 0 28 C-2.18096713 18.05143454 -1.78128063 9.90666075 0 0 Z " fill="#3C0404" transform="translate(152,86)"/>
<path d="M0 0 C0.99 0 1.98 0 3 0 C3 6.27 3 12.54 3 19 C2.34 18.67 1.68 18.34 1 18 C1 16.02 1 14.04 1 12 C0.67 12 0.34 12 0 12 C0 8.04 0 4.08 0 0 Z " fill="#ECECEC" transform="translate(127,129)"/>
<path d="M0 0 C1.32 0.66 2.64 1.32 4 2 C3.01 2.495 3.01 2.495 2 3 C1.29618843 4.98723268 0.6288189 6.98777953 0 9 C-1 10 -1 10 -4.1875 10.25 C-8.22587057 9.98518881 -10.54156471 9.02444992 -14 7 C-14 6.67 -14 6.34 -14 6 C-10.04 6.33 -6.08 6.66 -2 7 C0.12379689 2.58803524 0.12379689 2.58803524 0 0 Z " fill="#2E0304" transform="translate(173,9)"/>
<path d="M0 0 C2.97 0.495 2.97 0.495 6 1 C6 1.99 6 2.98 6 4 C4.68 4 3.36 4 2 4 C2.2784375 4.928125 2.2784375 4.928125 2.5625 5.875 C3 8 3 8 2 10 C-0.62187494 8.95125002 -1.79371361 8.35068687 -3.25 5.875 C-3.4975 5.25625 -3.745 4.6375 -4 4 C-2.68 3.34 -1.36 2.68 0 2 C0 1.34 0 0.68 0 0 Z " fill="#DF1914" transform="translate(134,99)"/>
<path d="M0 0 C0.33 0.66 0.66 1.32 1 2 C1.84820312 1.87625 2.69640625 1.7525 3.5703125 1.625 C8.44650916 2.15816046 10.51037687 4.62015233 13.875 8 C14.46796875 8.57234375 15.0609375 9.1446875 15.671875 9.734375 C17.12748978 11.14303446 18.56554376 12.56980031 20 14 C19.01 14.33 18.02 14.66 17 15 C16.278125 14.2575 15.55625 13.515 14.8125 12.75 C12.09288953 9.98732731 12.09288953 9.98732731 9.1875 7.8125 C8.465625 7.214375 7.74375 6.61625 7 6 C7 5.34 7 4.68 7 4 C4.36 4 1.72 4 -1 4 C-0.67 2.68 -0.34 1.36 0 0 Z " fill="#B81E1B" transform="translate(114,84)"/>
<path d="M0 0 C3.05010511 -0.45751577 5.22867448 -0.44877121 7.93359375 1.125 C10.01895322 2.68597083 12.01742201 4.31043258 14 6 C14.68191406 6.57234375 15.36382812 7.1446875 16.06640625 7.734375 C17.72408981 9.14089438 19.36390942 10.56842074 21 12 C16.11590127 12 13.49050686 8.23083882 9.984375 5.06640625 C6.56266288 2.69718411 4.10887996 2.2810801 0 2 C0 1.34 0 0.68 0 0 Z " fill="#580707" transform="translate(25,84)"/>
<path d="M0 0 C1.32 0 2.64 0 4 0 C4 3.3 4 6.6 4 10 C2.68 10 1.36 10 0 10 C0 6.7 0 3.4 0 0 Z " fill="#B9191B" transform="translate(25,33)"/>
<path d="M0 0 C1.32 0 2.64 0 4 0 C4 3.3 4 6.6 4 10 C2.68 10 1.36 10 0 10 C0 6.7 0 3.4 0 0 Z " fill="#EBEBEB" transform="translate(229,33)"/>
<path d="M0 0 C0.33 0 0.66 0 1 0 C1.03738281 0.845625 1.07476562 1.69125 1.11328125 2.5625 C1.55712639 10.22100444 2.56019972 16.12039945 6 23 C5.01 23 4.02 23 3 23 C2.67 21.68 2.34 20.36 2 19 C0.68 18.67 -0.64 18.34 -2 18 C-1.34 18 -0.68 18 0 18 C0 12.06 0 6.12 0 0 Z " fill="#AB1716" transform="translate(76,30)"/>
<path d="M0 0 C0.33 0 0.66 0 1 0 C1 9.57 1 19.14 1 29 C-1.64 28.67 -4.28 28.34 -7 28 C-7 27.67 -7 27.34 -7 27 C-5.02 26.67 -3.04 26.34 -1 26 C-0.67 17.42 -0.34 8.84 0 0 Z " fill="#A31A17" transform="translate(18,87)"/>
<path d="M0 0 C0.33 0.66 0.66 1.32 1 2 C2.299375 1.979375 3.59875 1.95875 4.9375 1.9375 C9.69382325 1.92995028 14.28388953 2.40112883 19 3 C18.625 4.9375 18.625 4.9375 18 7 C17.01 7.495 17.01 7.495 16 8 C16 6.68 16 5.36 16 4 C15.01257813 4.01160156 14.02515625 4.02320313 13.0078125 4.03515625 C11.72648438 4.04417969 10.44515625 4.05320312 9.125 4.0625 C7.84882813 4.07410156 6.57265625 4.08570313 5.2578125 4.09765625 C2 4 2 4 0 3 C0 2.01 0 1.02 0 0 Z " fill="#A71B1B" transform="translate(140,22)"/>
<path d="M0 0 C0.33 0 0.66 0 1 0 C1 5.28 1 10.56 1 16 C-0.32 15.67 -1.64 15.34 -3 15 C-3 14.01 -3 13.02 -3 12 C-2.67 12.33 -2.34 12.66 -2 13 C-1.93941406 12.14535156 -1.87882812 11.29070312 -1.81640625 10.41015625 C-1.69072266 8.75306641 -1.69072266 8.75306641 -1.5625 7.0625 C-1.48128906 5.96035156 -1.40007813 4.85820313 -1.31640625 3.72265625 C-1 1 -1 1 0 0 Z " fill="#4F0807" transform="translate(50,85)"/>
<path d="M0 0 C1.65 0 3.3 0 5 0 C5 1.98 5 3.96 5 6 C4.34 6 3.68 6 3 6 C2.67 5.34 2.34 4.68 2 4 C1.67 8.95 1.34 13.9 1 19 C0.67 19 0.34 19 0 19 C0 12.73 0 6.46 0 0 Z " fill="#DF1B1C" transform="translate(52,14)"/>
<path d="M0 0 C0.33 0 0.66 0 1 0 C1.04898437 0.85464844 1.09796875 1.70929688 1.1484375 2.58984375 C1.22320313 3.69457031 1.29796875 4.79929687 1.375 5.9375 C1.44460937 7.03964844 1.51421875 8.14179687 1.5859375 9.27734375 C1.72257812 10.17582031 1.85921875 11.07429688 2 12 C2.66 12.33 3.32 12.66 4 13 C3.79375 13.61875 3.5875 14.2375 3.375 14.875 C3.25125 15.57625 3.1275 16.2775 3 17 C3.66 17.66 4.32 18.32 5 19 C3.35 19 1.7 19 0 19 C0 12.73 0 6.46 0 0 Z " fill="#E61306" transform="translate(26,94)"/>
<path d="M0 0 C0.33 0.66 0.66 1.32 1 2 C-3.46351289 7.22325977 -8.0744893 12.20922972 -13 17 C-13.66 16.67 -14.32 16.34 -15 16 C-14.54109375 15.55269531 -14.0821875 15.10539062 -13.609375 14.64453125 C-10.15801086 11.24392246 -6.99260938 7.81815679 -4 4 C-2.68505488 2.64852862 -1.35735142 1.30887458 0 0 Z " fill="#3B0302" transform="translate(116,30)"/>
<path d="M0 0 C1.2065625 0.0309375 1.2065625 0.0309375 2.4375 0.0625 C2.4375 2.0425 2.4375 4.0225 2.4375 6.0625 C0.4575 6.0625 -1.5225 6.0625 -3.5625 6.0625 C-3.605221 4.39638095 -3.60313832 2.72867115 -3.5625 1.0625 C-2.5625 0.0625 -2.5625 0.0625 0 0 Z " fill="#DF120F" transform="translate(72.5625,14.9375)"/>
<path d="M0 0 C0.33 0 0.66 0 1 0 C1 5.28 1 10.56 1 16 C0.34 16 -0.32 16 -1 16 C-1 13.03 -1 10.06 -1 7 C-3.31 7 -5.62 7 -8 7 C-8 6.67 -8 6.34 -8 6 C-4.535 5.505 -4.535 5.505 -1 5 C-0.67 3.35 -0.34 1.7 0 0 Z " fill="#3F0202" transform="translate(40,19)"/>
<path d="M0 0 C0.66 0.33 1.32 0.66 2 1 C2 2.32 2 3.64 2 5 C-1.3 5.33 -4.6 5.66 -8 6 C-8 5.01 -8 4.02 -8 3 C-6.865625 2.690625 -5.73125 2.38125 -4.5625 2.0625 C-1.21224901 1.37075469 -1.21224901 1.37075469 0 0 Z " fill="#020202" transform="translate(15,10)"/>
<path d="M0 0 C7.17765043 0.47851003 7.17765043 0.47851003 10.5625 2.625 C12.60633274 6.00176713 11.86322363 8.25936427 11 12 C10.01 12.33 9.02 12.66 8 13 C8 12.01 8 11.02 8 10 C8.66 10 9.32 10 10 10 C9.67 8.02 9.34 6.04 9 4 C6.03 3.01 3.06 2.02 0 1 C0 0.67 0 0.34 0 0 Z " fill="#A2A2A2" transform="translate(176,135)"/>
<path d="M0 0 C1.65 1.32 3.3 2.64 5 4 C4.67 4.66 4.34 5.32 4 6 C3.34 5.34 2.68 4.68 2 4 C2 6.97 2 9.94 2 13 C0.35 13.66 -1.3 14.32 -3 15 C-3.33 13.68 -3.66 12.36 -4 11 C-3.01 11 -2.02 11 -1 11 C-0.67 7.37 -0.34 3.74 0 0 Z " fill="#969696" transform="translate(117,135)"/>
<path d="M0 0 C4.95 0 9.9 0 15 0 C15 0.66 15 1.32 15 2 C12.36 2.66 9.72 3.32 7 4 C7 3.34 7 2.68 7 2 C4.69 2 2.38 2 0 2 C0 1.34 0 0.68 0 0 Z " fill="#F0F0F0" transform="translate(95,129)"/>
<path d="M0 0 C0 0.99 0 1.98 0 3 C-0.61488281 2.91621094 -1.22976562 2.83242187 -1.86328125 2.74609375 C-2.67152344 2.64425781 -3.47976562 2.54242188 -4.3125 2.4375 C-5.11300781 2.33308594 -5.91351563 2.22867188 -6.73828125 2.12109375 C-9.16817116 1.85244822 -9.16817116 1.85244822 -12 3 C-11.67 2.01 -11.34 1.02 -11 0 C-6.98195309 -0.84098656 -3.98196457 -1.05404945 0 0 Z " fill="#AFAFAF" transform="translate(168,130)"/>
<path d="M0 0 C0.66 0 1.32 0 2 0 C2.66 1.65 3.32 3.3 4 5 C3.34 5 2.68 5 2 5 C2 6.32 2 7.64 2 9 C-1.3 9 -4.6 9 -8 9 C-8 8.67 -8 8.34 -8 8 C-5.36 8 -2.72 8 0 8 C0 7.34 0 6.68 0 6 C-0.99 5.67 -1.98 5.34 -3 5 C-1.68 4.67 -0.36 4.34 1 4 C0.67 2.68 0.34 1.36 0 0 Z " fill="#B6B6B6" transform="translate(182,140)"/>
<path d="M0 0 C0.33 0 0.66 0 1 0 C1 3.63 1 7.26 1 11 C0.01 11.33 -0.98 11.66 -2 12 C-2.05422947 10.5629191 -2.09289723 9.12524538 -2.125 7.6875 C-2.14820312 6.88699219 -2.17140625 6.08648437 -2.1953125 5.26171875 C-2 3 -2 3 0 0 Z " fill="#EDEDED" transform="translate(116,135)"/>
<path d="M0 0 C1.45922693 0.11409593 2.91740598 0.24165544 4.375 0.375 C5.59316406 0.47941406 5.59316406 0.47941406 6.8359375 0.5859375 C9 1 9 1 11 3 C9.02 3.33 7.04 3.66 5 4 C4.67 4.99 4.34 5.98 4 7 C4 5.68 4 4.36 4 3 C2.68 3 1.36 3 0 3 C0 2.01 0 1.02 0 0 Z " fill="#D41310" transform="translate(218,101)"/>
<path d="M0 0 C0 1.98 0 3.96 0 6 C-1.65 6.33 -3.3 6.66 -5 7 C-4 5 -3 3 -2 1 C-5.63 1 -9.26 1 -13 1 C-13 0.67 -13 0.34 -13 0 C-8.37078475 -1.0161692 -4.65537393 -0.83796731 0 0 Z " fill="#300203" transform="translate(248,84)"/>
<path d="M0 0 C1.4391134 0.28359887 2.87625518 0.57721399 4.3125 0.875 C5.11300781 1.03742188 5.91351563 1.19984375 6.73828125 1.3671875 C9 2 9 2 12 4 C11.67 4.66 11.34 5.32 11 6 C10.01 5.34 9.02 4.68 8 4 C8 4.99 8 5.98 8 7 C7.34 7 6.68 7 6 7 C6 6.34 6 5.68 6 5 C5.01 4.67 4.02 4.34 3 4 C3.66 3.67 4.32 3.34 5 3 C3.35 2.67 1.7 2.34 0 2 C0 1.34 0 0.68 0 0 Z " fill="#ACACAC" transform="translate(156,134)"/>
<path d="M0 0 C4.84688192 0.78175515 9.3766367 2.39844278 14 4 C14.33 3.01 14.66 2.02 15 1 C15 2.32 15 3.64 15 5 C10.30976546 4.43393721 5.65499974 3.81462495 1 3 C0.67 2.01 0.34 1.02 0 0 Z " fill="#6C100D" transform="translate(79,58)"/>
<path d="M0 0 C4.29 0 8.58 0 13 0 C13 0.66 13 1.32 13 2 C7.06 2.495 7.06 2.495 1 3 C0.67 2.01 0.34 1.02 0 0 Z " fill="#EEEEEE" transform="translate(71,129)"/>
<path d="M0 0 C0.886875 0.598125 1.77375 1.19625 2.6875 1.8125 C5.85484148 3.97088976 5.85484148 3.97088976 8.75 5.5 C11.19253075 7.12835383 11.9726219 8.29145774 13 11 C7.71860321 9.51460715 3.71945899 5.91327696 0 2 C0 1.34 0 0.68 0 0 Z " fill="#7D1110" transform="translate(39,103)"/>
<path d="M0 0 C1 2 1 2 1.25 4.25 C2.29732431 8.09018913 4.33683086 10.06368531 7 13 C2.70761377 11.34908222 0.1206085 8.26245434 -3 5 C-1.125 1.125 -1.125 1.125 0 0 Z " fill="#7C7878" transform="translate(125,45)"/>
<path d="M0 0 C4 1.33333333 8 2.66666667 12 4 C12.33 2.68 12.66 1.36 13 0 C13 1.65 13 3.3 13 5 C9.9465865 5.29359745 7.04256578 5.4451258 4 5 C1.4375 2.5 1.4375 2.5 0 0 Z " fill="#AC1A17" transform="translate(134,109)"/>
<path d="M0 0 C-1.35021826 4.41889613 -3.26115668 6.34345343 -7 9 C-4.83333333 0 -4.83333333 0 0 0 Z " fill="#860E10" transform="translate(243,89)"/>
<path d="M0 0 C2.1875 0.0625 2.1875 0.0625 5 1 C6.93157957 3.1717219 8.48201687 5.52601047 10 8 C6.05205855 6.32971708 3.18203882 3.8204435 0 1 C0 0.67 0 0.34 0 0 Z " fill="#891512" transform="translate(124,101)"/>
<path d="M0 0 C1.98 0 3.96 0 6 0 C5.67 0.66 5.34 1.32 5 2 C3.68 1.67 2.36 1.34 1 1 C1 2.32 1 3.64 1 5 C1.66 5 2.32 5 3 5 C2.34 7.64 1.68 10.28 1 13 C0.67 13 0.34 13 0 13 C0 8.71 0 4.42 0 0 Z " fill="#E51813" transform="translate(52,87)"/>
<path d="M0 0 C1.65 0 3.3 0 5 0 C4.01 0.33 3.02 0.66 2 1 C1.31513275 2.32407669 0.65129797 3.65909241 0 5 C-1.29470975 6.37086915 -2.62150897 7.71340837 -4 9 C-4.66 8.67 -5.32 8.34 -6 8 C-4.73046875 6.50260417 -3.4609375 5.00520833 -2.19140625 3.5078125 C-0.9121848 1.99405921 -0.9121848 1.99405921 0 0 Z " fill="#D30F12" transform="translate(234,87)"/>
<path d="M0 0 C0.33 1.32 0.66 2.64 1 4 C-0.98 5.32 -2.96 6.64 -5 8 C-5.66 7.67 -6.32 7.34 -7 7 C-4.66666667 4.66666667 -2.33333333 2.33333333 0 0 Z " fill="#BC1B1D" transform="translate(107,42)"/>
<path d="M0 0 C0.33 0.66 0.66 1.32 1 2 C-1.80804268 4.96404505 -4.18315774 7.44499019 -8 9 C-8 8.01 -8 7.02 -8 6 C-6.36935236 4.94228261 -4.69719127 3.94726954 -3 3 C-1.24850835 1.41754725 -1.24850835 1.41754725 0 0 Z " fill="#530A08" transform="translate(125,37)"/>
<path d="M0 0 C0.99 0.33 1.98 0.66 3 1 C2.34 2.32 1.68 3.64 1 5 C-1.31 5 -3.62 5 -6 5 C-5.01 4.34 -4.02 3.68 -3 3 C-1.98131338 2.01904252 -0.97648017 1.02297922 0 0 Z " fill="#ACACAC" transform="translate(164,141)"/>
<path d="M0 0 C2.97 0.33 5.94 0.66 9 1 C9.33 1.99 9.66 2.98 10 4 C6.7 3.34 3.4 2.68 0 2 C0 1.34 0 0.68 0 0 Z " fill="#E8E8E8" transform="translate(176,128)"/>
<path d="M0 0 C0.66 0.33 1.32 0.66 2 1 C0.25 6.75 0.25 6.75 -2 9 C-4.625 8.625 -4.625 8.625 -7 8 C-6.401875 7.79375 -5.80375 7.5875 -5.1875 7.375 C-2.18981233 5.49073918 -1.38638224 3.18867916 0 0 Z " fill="#340605" transform="translate(93,85)"/>
<path d="M0 0 C4.95 0 9.9 0 15 0 C14.34 1.32 13.68 2.64 13 4 C12.67 3.01 12.34 2.02 12 1 C8.04 1 4.08 1 0 1 C0 0.67 0 0.34 0 0 Z " fill="#9E1D1B" transform="translate(185,85)"/>
<path d="M0 0 C0.33 0.99 0.66 1.98 1 3 C-1.31 4.98 -3.62 6.96 -6 9 C-4.86634892 4.46539569 -3.35806626 3.09975347 0 0 Z " fill="#A61819" transform="translate(116,44)"/>
<path d="M0 0 C0.33 1.32 0.66 2.64 1 4 C0.01 4.33 -0.98 4.66 -2 5 C-2.33 5.99 -2.66 6.98 -3 8 C-4.32 7.67 -5.64 7.34 -7 7 C-4.69 4.69 -2.38 2.38 0 0 Z " fill="#BF1C1B" transform="translate(115,34)"/>
<path d="M0 0 C2.62187494 1.04874998 3.79371361 1.64931313 5.25 4.125 C5.4975 4.74375 5.745 5.3625 6 6 C4.88625 5.5359375 4.88625 5.5359375 3.75 5.0625 C1.49307824 4.1905075 -0.6450153 3.52332993 -3 3 C-2.01 2.01 -1.02 1.02 0 0 Z " fill="#909090" transform="translate(179,15)"/>
<path d="M0 0 C0.48210937 0.3609375 0.96421875 0.721875 1.4609375 1.09375 C2.09257812 1.5578125 2.72421875 2.021875 3.375 2.5 C4.00148437 2.9640625 4.62796875 3.428125 5.2734375 3.90625 C6.94094613 5.17838101 6.94094613 5.17838101 9 5 C8.67 5.99 8.34 6.98 8 8 C4.63820226 6.55922954 2.40843732 4.75249979 0 2 C0 1.34 0 0.68 0 0 Z " fill="#5E0705" transform="translate(218,89)"/>
<path d="M0 0 C0.99 0.33 1.98 0.66 3 1 C1.02 3.97 1.02 3.97 -1 7 C-1.66 6.67 -2.32 6.34 -3 6 C-2.67 4.68 -2.34 3.36 -2 2 C-1.34 2 -0.68 2 0 2 C0 1.34 0 0.68 0 0 Z " fill="#DA191B" transform="translate(121,36)"/>
<path d="M0 0 C0.33 1.32 0.66 2.64 1 4 C-2.96 5.98 -2.96 5.98 -7 8 C-7 7.34 -7 6.68 -7 6 C-5.46875 4.4921875 -5.46875 4.4921875 -3.5 2.875 C-2.8503125 2.33617187 -2.200625 1.79734375 -1.53125 1.2421875 C-1.0259375 0.83226563 -0.520625 0.42234375 0 0 Z " fill="#BA1D1A" transform="translate(123,26)"/>
<path d="M0 0 C4.05606165 0.46800711 7.46588679 0.87953208 11 3 C7.44706507 4.14947895 6.20023331 4.0868937 2.6875 2.5625 C1.800625 2.046875 0.91375 1.53125 0 1 C0 0.67 0 0.34 0 0 Z " fill="#3F090A" transform="translate(159,15)"/>
<path d="M0 0 C1.32 0 2.64 0 4 0 C4 1.98 4 3.96 4 6 C3.34 6 2.68 6 2 6 C1.34 4.02 0.68 2.04 0 0 Z " fill="#DC1708" transform="translate(53,14)"/>
<path d="M0 0 C2.31 0.33 4.62 0.66 7 1 C6.67 2.32 6.34 3.64 6 5 C5.34 4.67 4.68 4.34 4 4 C4 3.34 4 2.68 4 2 C2.68 2 1.36 2 0 2 C0 1.34 0 0.68 0 0 Z " fill="#383838" transform="translate(87,127)"/>
<path d="M0 0 C0.66 0 1.32 0 2 0 C5 4.38461538 5 4.38461538 5 7 C4.34 7 3.68 7 3 7 C3 6.34 3 5.68 3 5 C2.01 5 1.02 5 0 5 C0 3.35 0 1.7 0 0 Z " fill="#D51B1A" transform="translate(121,94)"/>
<path d="M0 0 C0.33 0 0.66 0 1 0 C1 1.65 1 3.3 1 5 C0.67 5 0.34 5 0 5 C0 3.35 0 1.7 0 0 Z " fill="#000000" transform="translate(0,10)"/>
<path d="" fill="#000000" transform="translate(0,0)"/>
<path d="" fill="#000000" transform="translate(0,0)"/>
<path d="" fill="#000000" transform="translate(0,0)"/>
<path d="" fill="#000000" transform="translate(0,0)"/>
</svg>
